# Blender 3.4.1
# www.blender.org
mtllib Boss_Head.mtl
o 立方体.007
v -0.005071 -1.341691 0.823191
v -0.005097 0.903129 1.090559
v -0.005058 -1.341691 0.681711
v -0.005116 0.437284 1.279880
v -0.005098 0.475385 1.098119
v -0.005095 -0.693526 1.067248
v -0.004971 1.519694 -0.213809
v -0.004917 1.393655 -0.764291
v -0.004858 0.006095 -1.376374
v -0.004897 -1.230174 -0.973375
v -0.005043 -1.244327 0.531348
v -0.545501 -1.061267 0.591620
v -0.892332 0.866616 0.698677
v -0.962982 -0.005690 0.698669
v -0.652878 -1.061267 0.257602
v -1.069518 0.947740 0.257562
v -1.140168 -0.105729 0.257555
v -0.637476 0.537084 1.050483
v -0.747900 0.303460 1.014668
v -0.138359 0.163785 1.118958
v -0.090619 -0.060103 1.118963
v -0.069809 -0.635028 1.118965
v -0.637471 0.545085 0.998760
v -0.760992 0.303460 0.962943
v -0.151451 0.163785 1.067234
v -0.103712 -0.060103 1.067239
v -0.082902 -0.635028 1.067241
v -0.721078 -1.061267 -0.213879
v -1.137718 0.947740 -0.213919
v -1.208369 -0.105729 -0.213926
v -0.808856 -1.349780 -0.213887
v -0.459014 -1.061267 -0.747459
v -0.875654 0.947740 -0.747499
v -0.946305 -0.105729 -0.747506
v -0.740656 -1.349780 0.257594
v -0.546792 -1.349780 -0.747468
v -0.636443 -1.252416 -0.213870
v -0.553975 -1.252416 0.220765
v -0.374379 -1.252416 -0.747450
v -0.005067 1.298026 0.784410
v -0.005016 1.519694 0.257665
v -0.005100 -0.693526 1.118971
v -0.004872 0.934083 -1.232520
v -0.004876 -0.995606 -1.185818
v 0.535404 -1.061267 0.591725
v 0.882213 0.866616 0.698849
v 0.952864 -0.005691 0.698856
v 0.642845 -1.061267 0.257728
v 1.059485 0.947740 0.257768
v 1.130135 -0.105729 0.257775
v 0.627289 0.537084 1.050606
v 0.737720 0.303460 1.014812
v 0.128159 0.163785 1.118984
v 0.080420 -0.060103 1.118979
v 0.059609 -0.635028 1.118978
v 0.627294 0.545085 0.998883
v 0.750823 0.303460 0.963090
v 0.141261 0.163785 1.067263
v 0.093522 -0.060103 1.067258
v 0.072712 -0.635028 1.067255
v 0.711137 -1.061267 -0.213740
v 1.127777 0.947740 -0.213699
v 1.198428 -0.105729 -0.213692
v 0.798915 -1.349780 -0.213731
v 0.449177 -1.061267 -0.747370
v 0.865817 0.947740 -0.747330
v 0.936467 -0.105729 -0.747324
v 0.730623 -1.349780 0.257736
v 0.536955 -1.349780 -0.747362
v 0.626502 -1.252416 -0.213748
v 0.543950 -1.252416 0.220872
v 0.364541 -1.252416 -0.747379
vn -0.9309 0.0624 0.3598
vn -0.4751 -0.8666 0.1527
vn -0.4465 0.8309 0.3321
vn -0.8091 -0.4126 0.4186
vn 0.9494 0.2024 -0.2403
vn 0.9060 -0.4183 -0.0646
vn 0.9688 0.0351 -0.2452
vn 0.2325 0.9708 -0.0589
vn -0.0798 -0.9756 -0.2045
vn -0.3505 0.5738 0.7402
vn -0.2666 0.3629 0.8929
vn -0.8549 0.0692 0.5141
vn -0.4475 -0.0384 0.8935
vn 0.5941 0.7902 -0.1504
vn -0.5178 -0.3552 0.7783
vn -0.9875 0.0662 0.1428
vn -0.4733 0.8809 -0.0000
vn -0.8835 -0.4506 0.1278
vn -0.8659 0.2634 -0.4253
vn -0.8960 0.0601 -0.4400
vn -0.4401 0.8716 -0.2161
vn -0.8161 -0.4162 -0.4008
vn -0.9477 0.2883 0.1371
vn 0.4780 -0.8464 0.2347
vn 0.4905 -0.8686 -0.0709
vn 0.2278 -0.0693 0.9712
vn -0.6775 -0.1374 -0.7225
vn -0.5581 0.0374 -0.8289
vn -0.3544 0.6673 -0.6550
vn 0.3993 -0.7072 0.5834
vn -0.4049 0.1232 -0.9060
vn -0.4950 0.1506 0.8557
vn 0.3047 -0.7995 -0.5177
vn -0.1577 -0.0238 0.9872
vn 0.9309 0.0624 0.3600
vn 0.4751 -0.8666 0.1528
vn 0.4368 0.8291 0.3490
vn 0.8090 -0.4126 0.4187
vn -0.9493 0.2024 -0.2405
vn -0.9060 -0.4183 -0.0648
vn -0.9688 0.0351 -0.2454
vn -0.2325 0.9708 -0.0589
vn 0.0798 -0.9756 -0.2045
vn 0.3504 0.5738 0.7402
vn 0.3591 0.5370 0.7633
vn 0.8548 0.0692 0.5143
vn 0.4473 -0.0384 0.8936
vn -0.5941 0.7902 -0.1505
vn 0.5176 -0.3552 0.7784
vn 0.9875 0.0662 0.1430
vn 0.4733 0.8809 -0.0000
vn 0.8835 -0.4506 0.1280
vn 0.8660 0.2634 -0.4251
vn 0.8960 0.0601 -0.4399
vn 0.4497 0.8706 -0.1993
vn 0.8162 -0.4162 -0.4007
vn 0.9476 0.2883 0.1373
vn -0.4780 -0.8464 0.2347
vn -0.4905 -0.8686 -0.0710
vn -0.2280 -0.0693 0.9712
vn 0.5144 -0.2623 -0.8164
vn 0.5583 0.0374 -0.8288
vn 0.3545 0.6673 -0.6550
vn -0.3994 -0.7072 0.5833
vn 0.4051 0.1232 -0.9059
vn 0.4949 0.1506 0.8558
vn -0.3104 -0.7934 -0.5235
vn 0.1575 -0.0238 0.9872
vn -0.0001 -0.0986 0.9951
vn -0.0001 -0.0000 1.0000
vn -0.0000 -1.0000 -0.0000
vn -0.9205 0.0746 0.3835
vn -0.4606 -0.8876 -0.0000
vn -0.4369 0.8291 0.3489
vn -0.8816 -0.3774 0.2834
vn 0.8810 -0.4173 -0.2230
vn -0.0846 -0.9847 -0.1523
vn -0.3592 0.5370 0.7633
vn -0.6833 0.2161 0.6974
vn -0.5724 -0.3036 0.7617
vn -0.2659 -0.5924 0.7605
vn 0.6706 0.7418 0.0001
vn -0.4284 -0.4738 0.7694
vn -0.4498 0.8908 0.0651
vn -0.4497 0.8706 -0.1994
vn 0.4475 -0.8902 -0.0849
vn -0.5143 -0.2623 -0.8165
vn -0.4806 0.1343 -0.8666
vn -0.5260 -0.5709 -0.6304
vn 0.3105 -0.7934 -0.5235
vn -0.1803 -0.0534 0.9822
vn 0.9205 0.0746 0.3836
vn 0.4606 -0.8876 -0.0000
vn 0.4464 0.8309 0.3322
vn 0.8816 -0.3774 0.2836
vn -0.8809 -0.4173 -0.2232
vn 0.0846 -0.9847 -0.1523
vn 0.2665 0.3629 0.8929
vn 0.6832 0.2161 0.6975
vn 0.5722 -0.3036 0.7618
vn 0.2657 -0.5924 0.7606
vn -0.6706 0.7418 -0.0001
vn 0.4282 -0.4738 0.7695
vn 0.4498 0.8908 0.0651
vn 0.4401 0.8716 -0.2160
vn -0.4475 -0.8902 -0.0850
vn 0.6777 -0.1374 -0.7224
vn 0.4808 0.1343 -0.8665
vn 0.5261 -0.5709 -0.6303
vn -0.3046 -0.7995 -0.5177
vn 0.1801 -0.0534 0.9822
vn -0.0000 -0.9952 -0.0980
vn -0.0000 -0.9997 0.0260
vt 0.589011 0.430661
vt 0.560015 0.430661
vt 0.875803 0.102966
vt 0.584740 0.796898
vt 0.603778 0.065369
vt 0.310146 0.440810
vt 0.539775 0.430217
vt 0.898561 0.102658
vt 0.629719 0.076597
vt 0.605710 0.729812
vt 0.875803 0.312748
vt 0.629720 0.141942
vt 0.670698 0.844693
vt 0.906075 0.312844
vt 0.775016 1.000000
vt 0.638164 0.397660
vt 0.687286 0.256752
vt 0.768770 0.570447
vt 0.274133 0.000000
vt 0.679848 0.585473
vt 0.320408 0.236878
vt 0.272647 0.661665
vt 0.285347 0.574122
vt 0.251093 0.428752
vt 0.225864 0.463091
vt 0.870576 0.196980
vt 0.653202 0.089611
vt 0.920662 0.018192
vt 0.490801 0.471124
vt 0.907758 0.459642
vt 0.428346 0.783990
vt 0.428602 0.646029
vt 0.974388 0.000000
vt 0.037644 0.373273
vt 0.318640 0.574122
vt 0.448305 0.459828
vt 0.026997 0.046130
vt 0.366307 0.782240
vt 0.833318 0.434330
vt 0.000000 0.216222
vt 0.368678 0.615508
vt 0.643218 0.390638
vt 0.915404 0.210704
vt 0.496870 0.742411
vt 0.649984 0.353206
vt 0.636469 0.356671
vt 0.309145 0.676670
vt 0.481143 0.704896
vt 0.696595 0.387347
vt 0.309145 0.574122
vt 0.576977 0.681592
vt 0.693403 0.350286
vt 0.586299 0.645652
vt 0.696595 0.256556
vt 0.629720 0.410903
vt 0.595935 0.554180
vt 0.649984 0.393930
vt 0.643218 0.395911
vt 0.923941 0.210695
vt 0.740910 0.775435
vt 0.317136 0.680049
vt 0.643218 0.353206
vt 0.778248 0.795618
vt 0.704180 0.387523
vt 0.317136 0.577500
vt 0.716129 0.872224
vt 0.730490 0.906464
vt 0.700987 0.350462
vt 0.638164 0.412892
vt 0.704180 0.256732
vt 0.778248 0.985072
vt 0.400035 0.443209
vt 0.084912 0.382464
vt 0.755770 0.430661
vt 0.074264 0.055321
vt 0.047267 0.225413
vt 0.320408 0.598890
vt 0.818164 0.023650
vt 0.069807 0.428703
vt 0.176636 0.394572
vt 0.672625 0.478137
vt 0.165989 0.067429
vt 0.138992 0.237520
vt 0.272647 0.574122
vt 0.022540 0.419512
vt 0.745094 0.000000
vt 0.161532 0.440810
vt 0.875803 0.099562
vt 0.807215 0.050945
vt 0.289322 0.554933
vt 0.738409 0.031982
vt 0.864854 0.126857
vt 0.555013 0.848463
vt 0.560949 0.000000
vt 0.931929 0.568861
vt 0.845388 0.563731
vt 0.629726 0.397672
vt 0.605710 0.544367
vt 0.693403 0.256556
vt 0.603923 0.325873
vt 0.605710 0.618339
vt 0.320408 0.083825
vt 0.255041 0.813702
vt 0.280095 0.395096
vt 0.250802 0.499860
vt 0.920662 0.193956
vt 0.485238 0.384532
vt 0.931929 0.729701
vt 0.478120 0.070644
vt 0.470443 0.212961
vt 0.679501 0.353206
vt 0.974388 0.210695
vt 0.309145 0.623228
vt 0.429038 0.383550
vt 0.401328 0.056138
vt 0.862317 0.758332
vt 0.393206 0.228003
vt 0.630543 0.353206
vt 0.915404 0.416365
vt 0.547609 0.125337
vt 0.629720 0.394195
vt 0.712070 0.343337
vt 0.533261 0.163397
vt 0.629720 0.314858
vt 0.712070 0.256556
vt 0.595587 0.186128
vt 0.691452 0.397913
vt 0.679501 0.256556
vt 0.716079 0.382864
vt 0.693403 0.360766
vt 0.712070 0.347683
vt 0.716079 0.256556
vt 0.687075 0.267196
vt 0.598996 0.316372
vt 0.636469 0.354955
vt 0.923941 0.416356
vt 0.605710 0.891235
vt 0.636469 0.397660
vt 0.704180 0.346926
vt 0.616639 0.934038
vt 0.683878 0.398343
vt 0.704180 0.260146
vt 0.684839 0.899024
vt 0.685828 0.361196
vt 0.709406 0.924523
vt 0.679500 0.267626
vt 0.761614 0.999319
vt 0.055461 0.489956
vt 0.356240 0.382113
vt 0.328530 0.054701
vt 0.007252 0.813702
vt 0.786629 0.775435
vt 0.320408 0.226566
vt 0.000000 0.641634
vt 0.348654 0.429223
vt 0.045775 0.442286
vt 0.699405 0.256556
vt 0.147969 0.488480
vt 0.696346 0.743162
vt 0.099761 0.812226
vt 0.092509 0.640159
vt 0.309145 0.574122
vt 0.421453 0.430661
vt 0.636418 0.213134
vt 0.285347 0.671384
vt 0.138284 0.440811
vt 0.795752 0.256556
vt 0.713927 0.233899
vt 0.285347 0.598646
vt 0.657310 0.191031
vt 0.272647 0.643707
vt 0.810274 0.233899
s 0
usemtl マテリアル.008
f 14/32/1 16/38/1 17/41/1
f 3/8/2 12/28/2 15/33/2
f 13/30/3 41/96/3 16/39/3
f 15/36/4 14/32/4 17/41/4
f 20/49/5 26/68/5 25/64/5
f 19/45/6 23/57/6 18/42/6
f 21/52/7 27/70/7 26/68/7
f 19/47/8 25/65/8 24/61/8
f 18/43/9 5/14/9 4/11/9
f 40/93/10 13/31/10 2/4/10
f 2/4/11 18/44/11 4/10/11
f 19/48/12 13/31/12 14/32/12
f 22/56/13 20/51/13 14/32/13
f 22/55/14 6/16/14 27/69/14
f 42/98/15 12/29/15 1/1/15
f 29/75/16 17/40/16 16/37/16
f 7/18/17 16/39/17 41/96/17
f 17/41/18 28/72/18 15/36/18
f 36/87/19 28/73/19 32/80/19
f 29/75/20 34/83/20 30/76/20
f 7/18/21 33/81/21 29/74/21
f 34/83/22 28/73/22 30/76/22
f 28/73/23 35/85/23 15/34/23
f 36/88/24 37/89/24 31/78/24
f 37/89/25 35/86/25 31/78/25
f 35/84/26 38/90/26 15/35/26
f 32/80/27 9/21/27 44/104/27
f 33/82/28 9/21/28 34/83/28
f 8/19/29 43/102/29 33/82/29
f 10/26/30 39/92/30 36/88/30
f 32/80/31 10/24/31 36/87/31
f 15/35/32 35/84/32 3/6/32
f 3/9/33 38/91/33 11/27/33
f 23/60/34 25/66/34 5/13/34
f 49/115/35 47/110/35 50/117/35
f 45/106/36 3/8/36 48/112/36
f 46/108/37 41/96/37 40/95/37
f 47/110/38 48/114/38 50/117/38
f 53/127/39 59/144/39 54/130/39
f 56/135/40 52/121/40 51/118/40
f 54/130/41 60/146/41 55/133/41
f 52/122/42 58/142/42 53/125/42
f 5/14/43 51/119/43 4/11/43
f 40/94/44 2/5/44 46/109/44
f 2/5/45 51/120/45 46/109/45
f 46/109/46 52/123/46 47/110/46
f 47/110/47 53/126/47 55/134/47
f 6/17/48 55/133/48 60/146/48
f 45/107/49 42/100/49 1/2/49
f 50/117/50 62/150/50 49/115/50
f 49/116/51 7/18/51 41/96/51
f 50/117/52 61/149/52 63/153/52
f 61/148/53 69/166/53 65/158/53
f 62/151/54 67/161/54 66/160/54
f 7/18/55 66/159/55 8/20/55
f 61/148/56 67/161/56 63/154/56
f 61/149/57 68/163/57 64/155/57
f 69/167/58 70/168/58 72/172/58
f 68/164/59 70/168/59 64/157/59
f 68/162/60 48/113/60 71/169/60
f 65/158/61 9/22/61 67/161/61
f 9/22/62 66/160/62 67/161/62
f 8/20/63 66/159/63 43/101/63
f 10/23/64 69/165/64 72/171/64
f 10/25/65 65/158/65 69/166/65
f 48/114/66 3/7/66 68/163/66
f 3/9/67 71/170/67 68/164/67
f 58/143/68 56/137/68 5/13/68
f 25/66/69 58/143/69 5/13/69
f 59/145/70 25/66/70 26/67/70
f 27/71/70 59/145/70 26/67/70
f 27/71/70 6/15/70 60/147/70
f 72/172/71 71/170/71 38/91/71
f 14/32/72 13/31/72 16/38/72
f 3/8/73 1/3/73 12/28/73
f 13/30/74 40/95/74 41/96/74
f 15/36/75 12/29/75 14/32/75
f 20/49/5 21/52/5 26/68/5
f 19/46/76 24/62/76 23/58/76
f 21/52/7 22/54/7 27/70/7
f 19/47/8 20/50/8 25/65/8
f 18/43/77 23/59/77 5/14/77
f 2/4/78 13/31/78 18/44/78
f 19/48/79 18/44/79 13/31/79
f 14/32/80 12/29/80 22/56/80
f 22/56/70 21/53/70 20/51/70
f 20/51/81 19/48/81 14/32/81
f 22/55/82 42/97/82 6/16/82
f 42/98/83 22/56/83 12/29/83
f 29/75/16 30/76/16 17/40/16
f 7/18/84 29/74/84 16/39/84
f 17/41/18 30/77/18 28/72/18
f 36/87/19 31/79/19 28/73/19
f 29/75/20 33/82/20 34/83/20
f 7/18/85 8/20/85 33/81/85
f 34/83/22 32/80/22 28/73/22
f 28/73/23 31/79/23 35/85/23
f 36/88/24 39/92/24 37/89/24
f 37/89/86 38/91/86 35/86/86
f 32/80/87 34/83/87 9/21/87
f 33/82/88 43/102/88 9/21/88
f 32/80/89 44/104/89 10/24/89
f 3/9/90 35/86/90 38/91/90
f 23/60/91 24/63/91 25/66/91
f 49/115/92 46/109/92 47/110/92
f 45/106/93 1/3/93 3/8/93
f 46/108/94 49/116/94 41/96/94
f 47/110/95 45/107/95 48/114/95
f 53/127/39 58/141/39 59/144/39
f 56/135/96 57/138/96 52/121/96
f 54/130/41 59/144/41 60/146/41
f 52/122/42 57/139/42 58/142/42
f 5/14/97 56/136/97 51/119/97
f 2/5/98 4/12/98 51/120/98
f 46/109/99 51/120/99 52/123/99
f 55/134/100 45/107/100 47/110/100
f 47/111/101 52/124/101 53/128/101
f 53/129/70 54/131/70 55/132/70
f 6/17/102 42/99/102 55/133/102
f 45/107/103 55/134/103 42/100/103
f 50/117/50 63/153/50 62/150/50
f 49/116/104 62/152/104 7/18/104
f 50/117/52 48/114/52 61/149/52
f 61/148/53 64/156/53 69/166/53
f 62/151/54 63/154/54 67/161/54
f 7/18/105 62/152/105 66/159/105
f 61/148/56 65/158/56 67/161/56
f 61/149/57 48/114/57 68/163/57
f 69/167/58 64/157/58 70/168/58
f 68/164/106 71/170/106 70/168/106
f 65/158/107 44/105/107 9/22/107
f 9/22/108 43/103/108 66/160/108
f 10/25/109 44/105/109 65/158/109
f 3/9/110 11/27/110 71/170/110
f 58/143/111 57/140/111 56/137/111
f 59/145/70 58/143/70 25/66/70
f 27/71/70 60/147/70 59/145/70
f 38/91/71 37/89/71 39/92/71
f 39/92/112 10/26/112 72/172/112
f 72/172/71 70/168/71 71/170/71
f 71/170/113 11/27/113 38/91/113
f 38/91/71 39/92/71 72/172/71
