# Blender 3.5.0
# www.blender.org
mtllib T_Font.mtl
o 平面.001
v 0.000000 0.938656 -0.051741
v -0.145657 -1.854391 -0.007023
v 0.000000 -2.194733 -0.007023
v -0.073886 0.938656 -0.051741
v 0.000000 0.490982 -0.075527
v -0.091184 0.490981 -0.075527
v -0.377146 0.490981 -0.075527
v -0.459544 0.376013 -0.075527
v 0.000000 0.375457 -0.075527
v -0.145657 0.375457 -0.075527
v 0.000000 -1.694432 -0.075527
v 0.000000 0.938656 0.037695
v -0.073886 0.938656 0.037695
v 0.000000 0.490982 0.061481
v -0.091184 0.490981 0.061481
v -0.377146 0.490981 0.061481
v -0.459544 0.376013 0.061481
v 0.000000 0.375457 0.061481
v -0.145657 0.375457 0.061481
v 0.000000 -1.694432 0.061481
v -0.076270 0.496740 -0.053761
v 0.000000 0.496740 -0.053761
v -0.076270 0.496740 0.039715
v 0.000000 0.496740 0.039715
v -0.119304 0.372051 -0.049596
v -0.119304 0.371040 0.035511
v 0.000000 0.370954 -0.051199
v 0.000000 0.370028 0.037145
v 0.145657 -1.854391 -0.007023
v 0.073886 0.938656 -0.051741
v 0.091184 0.490981 -0.075527
v 0.377146 0.490981 -0.075527
v 0.459544 0.376013 -0.075527
v 0.145657 0.375457 -0.075527
v 0.073886 0.938656 0.037695
v 0.091184 0.490981 0.061481
v 0.377146 0.490981 0.061481
v 0.459544 0.376013 0.061481
v 0.145657 0.375457 0.061481
v 0.076270 0.496740 -0.053761
v 0.076270 0.496740 0.039715
v 0.119304 0.372051 -0.049596
v 0.119304 0.371040 0.035511
vn -0.0000 0.9667 -0.2557
vn -0.0000 -0.0000 -1.0000
vn -0.0000 -0.9915 -0.1303
vn -0.3022 -0.1293 -0.9444
vn -0.0000 0.9667 0.2557
vn -0.0000 -0.0000 1.0000
vn -0.0113 -0.9759 0.2177
vn -0.3022 -0.1293 0.9444
vn -0.0000 1.0000 -0.0000
vn -0.8128 0.5825 -0.0000
vn -0.0018 -1.0000 -0.0000
vn -0.3602 0.9329 -0.0000
vn -0.1282 -0.9917 -0.0000
vn -1.0000 0.0054 -0.0000
vn -0.0000 0.0046 1.0000
vn -0.0000 0.0046 -1.0000
vn -0.4143 -0.0125 -0.9101
vn -0.0136 0.0118 0.9998
vn -0.9999 0.0118 0.0001
vn 0.0115 -0.9832 -0.1820
vn 0.3022 -0.1293 -0.9444
vn -0.0000 -0.9858 0.1677
vn 0.3022 -0.1293 0.9444
vn 0.8128 0.5825 -0.0000
vn 0.0018 -1.0000 -0.0000
vn 0.3602 0.9329 -0.0000
vn 0.1282 -0.9917 -0.0000
vn 1.0000 0.0054 -0.0000
vn 0.0133 0.0118 -0.9998
vn 0.0136 0.0118 0.9998
vn 0.9999 0.0118 0.0001
vn -0.0000 0.9667 -0.2558
vn -0.0115 -0.9832 -0.1820
vn -0.0000 0.9667 0.2558
vn -0.1765 -0.9842 -0.0117
vn -0.0133 0.0118 -0.9998
vn -0.4143 -0.0125 0.9101
vn 0.0113 -0.9759 0.2177
vn 0.1765 -0.9842 -0.0117
vn 0.4143 -0.0125 -0.9101
vn 0.4143 -0.0125 0.9101
vt 0.692068 0.585204
vt 0.662265 0.728563
vt 0.301301 0.132564
vt 0.457436 0.000000
vt 0.074409 0.132532
vt 0.244658 0.000000
vt 0.131149 0.000000
vt 0.766664 0.556240
vt 0.692068 0.556447
vt 0.691030 0.728563
vt 0.731038 0.377311
vt 0.776035 0.345216
vt 0.731038 0.412810
vt 0.776035 0.309726
vt 0.866154 0.717442
vt 0.731038 0.524139
vt 0.776035 0.198425
vt 0.775818 0.556240
vt 0.686050 0.198425
vt 0.821095 0.717444
vt 0.776035 0.377332
vt 0.686051 0.377436
vt 0.776035 0.434039
vt 0.686051 0.320697
vt 0.245472 0.195244
vt 0.805745 0.492006
vt 0.726907 0.585204
vt 0.726907 0.556447
vt 0.731825 0.556239
vt 0.834527 0.492006
vt 0.686051 0.377436
vt 0.829405 0.345216
vt 0.686051 0.341916
vt 0.829405 0.309726
vt 0.686051 0.230523
vt 0.829405 0.198425
vt 0.866154 0.664072
vt 0.730821 0.198425
vt 0.821095 0.664074
vt 0.632681 0.198425
vt 0.731038 0.377436
vt 0.632683 0.377436
vt 0.731038 0.320697
vt 0.632683 0.320697
vt 0.131149 0.195513
vt 0.784514 0.315622
vt 0.767450 0.728385
vt 0.692068 0.556447
vt 0.784514 0.345307
vt 0.662375 0.556447
vt 0.820926 0.315622
vt 0.731038 0.728385
vt 0.835456 0.664072
vt 0.820926 0.345307
vt 0.805745 0.664072
vt 0.430552 0.867087
vt 0.675962 0.330962
vt 0.291189 1.000000
vt 0.463708 0.867087
vt 0.642813 0.330962
vt 0.084675 0.999565
vt 0.676589 0.377436
vt 0.244764 0.999582
vt 0.131149 0.999188
vt 0.642180 0.377436
vt 0.430552 0.000000
vt 0.187888 0.132532
vt 0.865030 0.370571
vt 0.692068 0.613961
vt 0.633500 0.728563
vt 0.731038 0.341812
vt 0.776035 0.380706
vt 0.821095 0.664074
vt 0.731038 0.230482
vt 0.776035 0.492006
vt 0.775818 0.198425
vt 0.686050 0.556447
vt 0.776035 0.664072
vt 0.776035 0.320626
vt 0.686051 0.434175
vt 0.726907 0.613961
vt 0.830191 0.370571
vt 0.776964 0.492006
vt 0.686051 0.412956
vt 0.829405 0.380706
vt 0.686051 0.524349
vt 0.829405 0.492006
vt 0.821095 0.717444
vt 0.730821 0.556447
vt 0.776035 0.717442
vt 0.632681 0.556447
vt 0.731038 0.434175
vt 0.632683 0.434175
vt 0.784514 0.374993
vt 0.865817 0.198425
vt 0.632681 0.556447
vt 0.820926 0.374993
vt 0.829405 0.198425
vt 0.776035 0.664072
vt 0.430552 0.867504
vt 0.675962 0.423910
vt 0.198295 1.000000
vt 0.397413 0.866476
vt 0.642813 0.423910
vt 0.177622 0.999565
s 0
usemtl マテリアル.001
f 5/12/1 21/46/1 22/49/1
f 7/16/2 10/23/2 8/18/2
f 9/21/2 6/13/2 5/11/2
f 9/22/3 25/57/3 10/24/3
f 11/25/4 3/6/4 2/3/4
f 23/51/5 14/32/5 24/54/5
f 19/43/6 16/35/6 17/38/6
f 15/33/6 18/41/6 14/31/6
f 18/42/7 26/60/7 28/65/7
f 20/45/8 2/5/8 3/7/8
f 7/17/9 15/34/9 6/14/9
f 4/9/9 12/27/9 1/1/9
f 8/20/10 16/37/10 7/15/10
f 10/24/11 17/40/11 8/19/11
f 6/14/12 23/51/12 21/46/12
f 25/57/13 19/44/13 10/24/13
f 21/47/14 13/29/14 4/8/14
f 13/30/15 24/55/15 12/26/15
f 22/50/16 4/10/16 1/2/16
f 25/58/17 11/25/17 2/3/17
f 26/61/18 20/45/18 28/64/18
f 26/59/19 25/56/19 2/4/19
f 40/94/1 5/12/1 22/49/1
f 34/79/2 32/74/2 33/76/2
f 31/71/2 9/21/2 5/11/2
f 9/22/20 42/101/20 27/62/20
f 11/25/21 29/67/21 3/6/21
f 14/32/5 41/97/5 24/54/5
f 37/86/6 39/92/6 38/89/6
f 18/41/6 36/84/6 14/31/6
f 18/42/22 43/104/22 39/93/22
f 20/45/23 3/7/23 29/67/23
f 36/85/9 32/75/9 31/72/9
f 12/27/9 30/69/9 1/1/9
f 37/88/24 33/78/24 32/73/24
f 38/91/25 34/80/25 33/77/25
f 41/97/26 31/72/26 40/94/26
f 39/93/27 42/101/27 34/80/27
f 35/82/28 40/95/28 30/68/28
f 24/55/15 35/83/15 12/26/15
f 30/70/16 22/50/16 1/2/16
f 42/102/29 11/25/29 27/63/29
f 20/45/30 43/105/30 28/64/30
f 43/103/31 29/66/31 42/100/31
f 5/12/32 6/14/32 21/46/32
f 7/16/2 6/13/2 10/23/2
f 9/21/2 10/23/2 6/13/2
f 9/22/33 27/62/33 25/57/33
f 23/51/34 15/34/34 14/32/34
f 19/43/6 15/33/6 16/35/6
f 15/33/6 19/43/6 18/41/6
f 18/42/22 19/44/22 26/60/22
f 7/17/9 16/36/9 15/34/9
f 4/9/9 13/28/9 12/27/9
f 8/20/10 17/39/10 16/37/10
f 10/24/11 19/44/11 17/40/11
f 6/14/12 15/34/12 23/51/12
f 25/57/35 26/60/35 19/44/35
f 21/47/14 23/52/14 13/29/14
f 13/30/15 23/53/15 24/55/15
f 22/50/16 21/48/16 4/10/16
f 25/58/36 27/63/36 11/25/36
f 26/61/37 2/5/37 20/45/37
f 40/94/32 31/72/32 5/12/32
f 34/79/2 31/71/2 32/74/2
f 31/71/2 34/79/2 9/21/2
f 9/22/3 34/80/3 42/101/3
f 14/32/34 36/85/34 41/97/34
f 37/86/6 36/84/6 39/92/6
f 18/41/6 39/92/6 36/84/6
f 18/42/38 28/65/38 43/104/38
f 36/85/9 37/87/9 32/75/9
f 12/27/9 35/81/9 30/69/9
f 37/88/24 38/90/24 33/78/24
f 38/91/25 39/93/25 34/80/25
f 41/97/26 36/85/26 31/72/26
f 39/93/39 43/104/39 42/101/39
f 35/82/28 41/98/28 40/95/28
f 24/55/15 41/99/15 35/83/15
f 30/70/16 40/96/16 22/50/16
f 42/102/40 29/67/40 11/25/40
f 20/45/41 29/67/41 43/105/41
