# Blender 3.4.1
# www.blender.org
mtllib Boss_Body.mtl
o 立方体.005
v -0.005452 0.618583 -1.980759
v -0.005492 -2.175803 -1.561110
v -0.005507 2.713384 -1.411783
v -0.005462 1.322318 -1.873987
v -0.005836 -0.888515 1.981460
v -1.266014 -2.175803 1.252244
v -1.911835 2.022408 1.320330
v -1.909847 0.244200 1.303560
v -2.216114 2.173791 -0.503564
v -2.505190 0.256516 -0.692411
v -1.712864 -2.175803 -0.766532
v -2.554176 0.135989 0.237367
v -2.277725 2.099066 0.213186
v -1.712959 -2.175803 0.213004
v -1.436305 2.440848 -0.766505
v -1.572989 2.544795 0.213186
v -1.014557 2.698081 0.910366
v -1.450068 2.713387 -0.751813
v -1.572989 2.832623 0.213186
v -1.816214 1.995074 -1.109858
v -2.038261 0.416797 -1.109880
v -1.245931 -2.175803 -1.225213
v -0.969372 2.440848 -1.225187
v -0.969372 2.713387 -1.225187
v -2.554206 1.230847 0.547916
v -2.554128 0.193987 -0.256887
v -2.554199 0.671089 0.478764
v -2.038247 0.863853 -1.248993
v -0.903489 2.417605 -1.032530
v -0.903489 2.690143 -1.032530
v -1.265752 2.440848 -0.751813
v -1.265752 2.713387 -0.751813
v -1.397025 2.545680 0.200956
v -1.346611 2.802773 0.213186
v -0.894711 2.428226 0.733920
v -0.894711 2.698081 0.733920
v -1.927231 1.429463 -1.179425
v -2.133567 -1.019906 0.225186
v -0.953825 1.119807 1.804670
v -1.945518 1.136447 1.299725
v -0.428356 2.345538 0.848837
v -0.428356 2.618075 0.848837
v -0.477209 2.347140 1.008346
v -0.488288 2.618075 1.023969
v -0.935992 0.317094 1.826815
v -0.971641 1.922519 1.601405
v -0.683797 -2.170821 1.563401
v -1.146975 0.504315 -1.487600
v -0.805571 -2.175803 -1.342365
v -1.576436 -1.009008 1.276986
v -0.772328 -0.947934 1.744559
v -1.014557 2.425542 0.910366
v -0.005806 -2.168143 1.664838
v -0.005829 1.816342 1.906915
v -0.005867 0.371783 2.292454
v -0.005754 2.265536 1.137569
v -0.005754 2.538074 1.137569
v -0.005472 2.026053 -1.767215
v -0.005488 2.455785 -1.609854
v -0.005485 2.713387 -1.633317
v -0.005507 2.440846 -1.411784
v -0.005737 2.538074 0.963751
v -0.005851 1.103166 2.128490
v 1.254483 -2.175803 1.252488
v 1.900290 2.022408 1.320700
v 1.898306 0.244200 1.303930
v 2.204924 2.173790 -0.503135
v 2.494037 0.256516 -0.691925
v 1.701725 -2.175803 -0.766200
v 2.542842 0.135989 0.237862
v 2.266396 2.099065 0.213627
v 1.701630 -2.175803 0.213336
v 1.425166 2.440848 -0.766227
v 1.561661 2.544795 0.213490
v 1.003094 2.698081 0.910562
v 1.438927 2.713387 -0.751532
v 1.561661 2.832623 0.213490
v 1.805142 1.995074 -1.109506
v 2.027189 0.416797 -1.109485
v 1.234881 -2.175803 -1.224973
v 0.958322 2.440848 -1.224999
v 0.958322 2.713387 -1.224999
v 2.542812 1.230847 0.548411
v 2.542890 0.193987 -0.256392
v 2.542818 0.671089 0.479258
v 2.027202 0.863853 -1.248598
v 0.892401 2.417605 -1.032356
v 0.892401 2.690143 -1.032356
v 1.254610 2.440848 -0.751568
v 1.254610 2.713387 -0.751568
v 1.385698 2.545680 0.201226
v 1.335282 2.802773 0.213447
v 0.883280 2.428226 0.734092
v 0.883280 2.698081 0.734092
v 1.916172 1.429463 -1.179052
v 2.122236 -1.019906 0.225599
v 0.942187 1.119807 1.804854
v 1.933978 1.136447 1.300102
v 0.416903 2.345538 0.848920
v 0.416903 2.618075 0.848920
v 0.465725 2.347140 1.008438
v 0.476802 2.618075 1.024063
v 0.924349 0.317094 1.826995
v 0.960043 1.922519 1.601592
v 0.672205 -2.170821 1.563532
v -0.005737 2.277524 0.963751
v 1.135976 0.504315 -1.487379
v 0.794544 -2.175803 -1.342210
v 1.564900 -1.009008 1.277291
v 0.760701 -0.947934 1.744708
v 1.003094 2.425542 0.910562
vn 0.1233 0.9894 0.0772
vn -0.2703 0.2307 0.9347
vn 0.1300 0.9859 -0.1053
vn -0.4606 0.7537 -0.4689
vn -0.2875 -0.0113 0.9577
vn -0.1881 -0.0642 0.9801
vn -0.6209 -0.1790 -0.7632
vn 0.1302 0.9877 0.0863
vn -0.3827 -0.0760 -0.9207
vn -0.6009 -0.2375 -0.7632
vn -1.0000 -0.0000 -0.0001
vn -0.9432 -0.3320 -0.0132
vn -0.3257 0.1781 -0.9286
vn -0.9462 -0.0000 0.3236
vn -0.7017 0.0030 -0.7125
vn 0.3891 -0.0000 0.9212
vn 0.6125 -0.0000 0.7905
vn 0.2393 -0.0000 -0.9710
vn -0.0000 1.0000 -0.0000
vn 0.1704 0.9837 0.0583
vn -0.4539 -0.0143 0.8909
vn -0.4640 -0.1626 0.8708
vn -0.3229 0.0189 0.9462
vn -0.0644 0.8618 0.5032
vn -0.2643 -0.0000 0.9644
vn 0.0108 0.8088 0.5880
vn 0.1309 0.9874 0.0889
vn -0.3400 0.1411 -0.9298
vn -0.3515 -0.2782 -0.8939
vn 0.2624 -0.0000 -0.9650
vn -0.2628 -0.0856 -0.9611
vn -0.8388 -0.3100 0.4475
vn -0.1456 -0.1553 0.9771
vn -0.8034 -0.2978 0.5157
vn -0.4604 -0.1411 0.8765
vn -0.2868 -0.0991 0.9528
vn -0.3885 -0.0836 -0.9176
vn -0.3207 0.3854 -0.8652
vn -0.7805 -0.0000 0.6252
vn 0.9906 -0.0000 0.1365
vn -0.8039 -0.0729 0.5903
vn -0.9901 -0.0428 -0.1336
vn -0.5203 0.8227 0.2289
vn -0.7762 0.0149 0.6303
vn -0.3648 0.9192 -0.1484
vn 0.7390 -0.1133 -0.6641
vn 0.3055 0.2825 0.9093
vn -0.1300 0.9859 -0.1053
vn 0.4271 0.7514 -0.5030
vn 0.4405 0.2111 0.8726
vn 0.1879 -0.0642 0.9801
vn 0.6210 -0.1790 -0.7631
vn -0.1303 0.9877 0.0863
vn 0.3829 -0.0760 -0.9207
vn 0.6010 -0.2375 -0.7631
vn 1.0000 -0.0000 0.0001
vn 0.9432 -0.3320 -0.0130
vn 0.3202 0.1421 -0.9366
vn 0.9461 -0.0000 0.3238
vn 0.7018 0.0030 -0.7124
vn -0.3892 -0.0000 0.9211
vn -0.6127 -0.0000 0.7903
vn -0.2391 -0.0000 -0.9710
vn -0.0218 0.9934 0.1124
vn -0.1636 0.9865 -0.0000
vn 0.4739 0.0138 0.8805
vn 0.4638 -0.1626 0.8709
vn 0.4480 0.1956 0.8724
vn 0.0153 0.8190 0.5735
vn 0.2642 -0.0000 0.9645
vn -0.0109 0.8088 0.5880
vn -0.1309 0.9874 0.0889
vn 0.3401 0.1411 -0.9297
vn 0.3517 -0.2782 -0.8938
vn -0.2622 -0.0000 -0.9650
vn 0.2629 -0.0856 -0.9610
vn 0.8906 -0.2451 0.3832
vn 0.1454 -0.1553 0.9771
vn 0.8572 -0.2378 0.4567
vn 0.4921 -0.1197 0.8623
vn 0.2866 -0.0991 0.9529
vn 0.3708 -0.0000 -0.9287
vn 0.3209 0.3854 -0.8652
vn 0.7804 -0.0000 0.6253
vn -0.9755 -0.1960 0.0997
vn 0.8038 -0.0729 0.5904
vn 0.9920 -0.0000 -0.1262
vn 0.2454 0.9035 0.3512
vn 0.7761 0.0149 0.6305
vn 0.5341 0.8444 0.0422
vn -0.7389 -0.1133 -0.6642
vn -0.0006 -1.0000 0.0027
vn -0.9456 0.1274 -0.2993
vn 0.9097 0.1052 -0.4018
vn -0.0962 0.9825 0.1597
vn -0.3056 0.2825 0.9093
vn -0.0000 0.9957 -0.0922
vn -0.4270 0.7514 -0.5031
vn -0.4407 0.2111 0.8725
vn -0.2110 -0.0000 0.9775
vn -0.6894 -0.1795 -0.7018
vn 0.1284 0.9879 0.0872
vn -0.2562 -0.0848 -0.9629
vn -0.9397 -0.3419 -0.0001
vn -0.9391 -0.3413 -0.0401
vn -0.9415 -0.3022 -0.1492
vn -0.3200 0.1421 -0.9367
vn -0.7008 -0.0000 -0.7134
vn 0.0218 0.9934 0.1124
vn 0.1636 0.9865 -0.0000
vn -0.4741 0.0138 0.8804
vn -0.4887 -0.1482 0.8598
vn -0.4482 0.1956 0.8723
vn -0.0154 0.8190 0.5735
vn -0.2390 -0.0656 0.9688
vn -0.0911 0.8024 0.5898
vn 0.1560 0.9863 0.0534
vn -0.3549 -0.2900 -0.8888
vn -0.3812 -0.1373 -0.9142
vn -0.8906 -0.2451 0.3830
vn -0.2709 -0.2312 0.9344
vn -0.8573 -0.2378 0.4566
vn -0.4922 -0.1197 0.8622
vn -0.4268 -0.2167 0.8780
vn -0.3707 -0.0000 -0.9288
vn -0.3553 0.3214 -0.8778
vn 0.9755 -0.1960 0.0999
vn -0.7786 -0.0284 0.6268
vn -0.8212 -0.2347 0.5201
vn -0.9920 -0.0000 -0.1264
vn -0.2455 0.9035 0.3512
vn -0.8635 0.3956 0.3128
vn -0.5341 0.8444 0.0421
vn 0.7277 -0.0000 -0.6859
vn -0.1233 0.9894 0.0772
vn 0.2701 0.2307 0.9348
vn 0.4607 0.7537 -0.4688
vn 0.2873 -0.0113 0.9578
vn 0.2108 -0.0000 0.9775
vn 0.6895 -0.1795 -0.7017
vn -0.1284 0.9879 0.0872
vn 0.2564 -0.0848 -0.9629
vn 0.9397 -0.3419 0.0001
vn 0.9415 -0.3022 -0.1490
vn 0.9391 -0.3413 -0.0400
vn 0.3258 0.1781 -0.9285
vn 0.7009 -0.0000 -0.7132
vn -0.1704 0.9837 0.0583
vn 0.4537 -0.0143 0.8910
vn 0.4885 -0.1482 0.8599
vn 0.3227 0.0189 0.9463
vn 0.0643 0.8618 0.5032
vn 0.2388 -0.0656 0.9689
vn 0.0909 0.8024 0.5898
vn -0.1561 0.9863 0.0534
vn 0.3551 -0.2900 -0.8887
vn 0.3814 -0.1373 -0.9142
vn 0.8387 -0.3100 0.4477
vn 0.2707 -0.2312 0.9345
vn 0.8033 -0.2978 0.5159
vn 0.4602 -0.1411 0.8765
vn 0.4266 -0.2167 0.8781
vn 0.3887 -0.0836 -0.9176
vn 0.3555 0.3214 -0.8777
vn -0.9907 -0.0000 0.1363
vn 0.7785 -0.0284 0.6270
vn 0.8211 -0.2347 0.5203
vn 0.9901 -0.0428 -0.1334
vn 0.5203 0.8227 0.2290
vn 0.8635 0.3956 0.3129
vn 0.3649 0.9192 -0.1484
vn -0.7276 -0.0000 -0.6860
vn -0.0000 -1.0000 -0.0000
vn -0.0022 -0.9999 0.0120
vn 0.0022 -0.9999 0.0120
vn -0.0066 -1.0000 -0.0015
vn 0.0057 -1.0000 0.0010
vn -0.7816 0.2250 -0.5818
vn -0.8534 0.2253 -0.4701
vn -0.9860 0.1398 -0.0907
vn -0.8460 0.0654 -0.5292
vn -0.9563 -0.2709 -0.1104
vn -0.9101 0.3772 -0.1716
vn 0.7817 0.2250 -0.5817
vn 0.9572 0.2845 -0.0524
vn 0.7936 0.6085 -0.0017
vn 0.9724 0.1430 -0.1842
vn -0.1285 0.9609 -0.2454
vn 0.2919 0.9543 -0.0648
vn -0.0000 0.8605 0.5095
vn 0.1834 0.9823 -0.0375
vn 0.0143 0.9995 0.0273
vn 0.0235 0.9934 -0.1125
vn -0.1578 0.9851 0.0683
vn -0.0000 0.9982 0.0594
vn -0.0026 0.9948 -0.1022
vt 0.295106 0.238359
vt 0.277188 0.000000
vt 0.998715 0.145769
vt 0.338872 0.418827
vt 0.333614 0.720646
vt 0.888002 0.796422
vt 0.290782 0.298499
vt 0.269572 0.540610
vt 0.431013 0.122597
vt 0.158152 0.417708
vt 0.692535 0.744494
vt 0.758501 0.038169
vt 0.072931 0.769492
vt 0.467328 0.729240
vt 0.688070 0.384037
vt 0.686454 0.535742
vt 0.088999 0.618524
vt 0.623549 0.755245
vt 0.840344 0.372516
vt 0.850432 0.535292
vt 0.859785 0.745647
vt 0.930860 0.000000
vt 0.770865 0.544145
vt 0.000000 0.598334
vt 0.562076 0.760491
vt 0.778821 0.377706
vt 0.776650 0.744325
vt 0.847227 0.000000
vt 0.647361 0.688735
vt 0.390400 0.634420
vt 0.364978 0.704207
vt 0.391651 0.549537
vt 0.564416 0.700441
vt 0.807211 0.996657
vt 0.389255 0.637461
vt 0.934345 0.923820
vt 0.413470 0.630932
vt 0.883525 0.988543
vt 0.389255 0.707991
vt 0.416105 0.547303
vt 0.674285 0.721049
vt 0.394122 0.356528
vt 0.895151 0.389984
vt 0.410416 0.221801
vt 0.890408 0.523825
vt 0.902984 0.747908
vt 0.355705 0.000306
vt 0.970026 0.039863
vt 0.686454 0.648864
vt 0.392950 0.677603
vt 0.335851 0.394439
vt 0.416105 0.675487
vt 0.934345 0.866266
vt 0.335897 0.417708
vt 0.001847 0.693035
vt 0.746391 0.450338
vt 0.812913 0.539865
vt 0.004380 0.645137
vt 0.751297 0.498177
vt 0.416276 0.259896
vt 0.902984 0.485881
vt 0.389255 0.662129
vt 0.308355 0.494892
vt 0.467478 0.784207
vt 0.412410 0.660013
vt 0.331565 0.496011
vt 0.918603 0.873845
vt 0.308227 0.533801
vt 0.498484 0.760491
vt 0.923314 0.912595
vt 0.331437 0.534920
vt 0.316668 0.599187
vt 0.286100 0.417708
vt 0.579291 0.770523
vt 0.308227 0.420891
vt 0.869861 0.974861
vt 0.338872 0.597908
vt 0.279132 0.477747
vt 0.612632 0.823897
vt 0.810761 0.978817
vt 0.302144 0.476613
vt 0.405199 0.308212
vt 0.899068 0.437932
vt 0.042045 0.503335
vt 0.773757 0.644235
vt 0.172446 0.702891
vt 0.077844 0.693944
vt 0.273963 0.517602
vt 0.612185 0.865023
vt 0.297203 0.516457
vt 0.775555 0.957562
vt 0.495627 0.606837
vt 0.366253 0.588740
vt 0.389101 0.592532
vt 0.768499 0.971675
vt 0.182131 0.635041
vt 0.155734 0.769692
vt 0.442860 0.648942
vt 0.214125 0.424298
vt 0.731938 0.087881
vt 0.359687 0.228981
vt 0.327744 0.000198
vt 0.980032 0.077460
vt 0.689603 0.643845
vt 0.124810 0.514531
vt 0.203079 0.528450
vt 0.366268 0.633878
vt 0.504383 0.652736
vt 0.269211 0.430195
vt 0.446026 0.011880
vt 0.723283 0.145769
vt 0.241477 0.769692
vt 0.443586 0.352680
vt 0.416276 0.566455
vt 0.269895 0.649351
vt 0.416276 0.231636
vt 0.365484 0.547303
vt 0.364978 0.417708
vt 0.484191 0.566563
vt 0.732405 0.949355
vt 0.388471 0.550885
vt 0.342073 0.421621
vt 0.286459 0.358639
vt 0.279986 0.395412
vt 0.901463 0.783186
vt 0.281005 0.417393
vt 0.315662 0.417708
vt 0.310350 0.720649
vt 0.416276 0.849850
vt 0.742967 0.938970
vt 0.292114 0.553043
vt 0.256719 0.710461
vt 0.428242 0.293087
vt 0.547565 0.010275
vt 0.758501 0.253369
vt 0.467328 0.403762
vt 0.595582 0.368998
vt 0.591113 0.217387
vt 0.623549 0.377778
vt 0.723283 0.372516
vt 0.069091 0.371690
vt 0.055068 0.207867
vt 0.395474 0.480896
vt 0.695130 0.000000
vt 0.116830 0.000242
vt 0.930860 0.291538
vt 0.693666 0.203141
vt 0.562076 0.372516
vt 0.684121 0.370013
vt 0.636780 0.005199
vt 0.847227 0.291538
vt 0.138219 0.394433
vt 0.647361 0.444423
vt 0.364978 0.570724
vt 0.087307 0.403810
vt 0.564416 0.432805
vt 0.686454 0.873802
vt 0.338872 0.498376
vt 0.362677 0.621978
vt 0.761437 0.747908
vt 0.136627 0.417708
vt 0.695915 0.797674
vt 0.340788 0.574856
vt 0.674285 0.411859
vt 0.124093 0.356153
vt 0.107273 0.221379
vt 0.170722 0.000049
vt 0.970026 0.251675
vt 0.686454 0.484279
vt 0.411000 0.517808
vt 0.192111 0.394240
vt 0.411000 0.541045
vt 0.818971 0.748888
vt 0.192157 0.417508
vt 0.678459 0.298081
vt 0.000000 0.291703
vt 0.723283 0.205459
vt 0.408532 0.516237
vt 0.033299 0.202753
vt 0.680895 0.250017
vt 0.408532 0.417708
vt 0.113133 0.259475
vt 0.395474 0.516237
vt 0.308227 0.637670
vt 0.427757 0.932305
vt 0.811118 0.764493
vt 0.395474 0.539474
vt 0.331492 0.637668
vt 0.310350 0.599189
vt 0.395474 0.417776
vt 0.442739 0.968333
vt 0.772470 0.759130
vt 0.333614 0.599187
vt 0.372223 0.417708
vt 0.387080 0.497419
vt 0.517742 1.000000
vt 0.364978 0.498856
vt 0.709348 0.811560
vt 0.285215 0.610185
vt 0.395474 0.547303
vt 0.573306 0.970519
vt 0.308227 0.609051
vt 0.704348 0.870555
vt 0.372452 0.547236
vt 0.118613 0.307814
vt 0.665223 0.104170
vt 0.505492 0.293717
vt 0.596203 0.293429
vt 0.276855 0.580563
vt 0.593489 0.934728
vt 0.724966 0.906094
vt 0.300095 0.579418
vt 0.495627 0.526329
vt 0.363213 0.455021
vt 0.340316 0.458671
vt 0.710738 0.912910
vt 0.500670 0.225419
vt 0.521104 0.361054
vt 0.442860 0.484016
vt 0.493478 0.011779
vt 0.731938 0.203657
vt 0.269895 0.554138
vt 0.612632 0.902520
vt 0.189457 0.228745
vt 0.208431 0.000033
vt 0.980032 0.214078
vt 0.568562 0.110133
vt 0.491770 0.117029
vt 0.504383 0.480469
vt 0.361778 0.494463
s 0
usemtl マテリアル.009
f 24/53/1 32/70/1 30/67/1
f 39/86/2 54/112/2 46/97/2
f 34/76/3 18/36/3 19/38/3
f 20/41/4 15/29/4 23/49/4
f 40/87/5 46/97/5 7/13/5
f 44/94/6 52/107/6 43/93/6
f 21/45/7 11/21/7 10/20/7
f 17/34/8 34/76/8 19/38/8
f 48/101/9 22/47/9 21/44/9
f 21/45/10 10/20/10 28/61/10
f 27/59/11 26/57/11 12/23/11
f 38/85/12 26/57/12 11/21/12
f 4/7/13 28/60/13 37/82/13
f 23/50/14 30/65/14 24/52/14
f 24/52/15 15/30/15 18/37/15
f 30/66/16 61/127/16 3/4/16
f 30/66/17 31/68/17 29/63/17
f 35/78/18 42/90/18 41/88/18
f 24/53/19 3/6/19 60/125/19
f 44/95/20 62/130/20 42/91/20
f 8/17/21 39/86/21 40/87/21
f 51/106/22 6/10/22 47/99/22
f 45/96/23 63/132/23 39/86/23
f 56/119/24 46/98/24 54/114/24
f 57/121/25 43/93/25 56/117/25
f 52/108/26 46/98/26 43/92/26
f 44/95/27 36/80/27 17/34/27
f 4/7/28 20/42/28 58/123/28
f 28/60/29 48/101/29 21/44/29
f 62/131/30 41/88/30 42/90/30
f 48/101/31 2/2/31 49/102/31
f 14/27/32 50/104/32 38/85/32
f 53/109/33 51/106/33 47/99/33
f 38/84/34 8/17/34 12/24/34
f 50/105/35 45/96/35 8/17/35
f 5/8/36 45/96/36 51/106/36
f 59/124/37 24/54/37 60/126/37
f 23/51/38 58/123/38 20/42/38
f 16/31/39 17/35/39 19/39/39
f 32/71/40 33/72/40 31/68/40
f 25/55/41 27/58/41 8/17/41
f 16/32/42 18/37/42 15/30/42
f 7/14/43 16/33/43 13/25/43
f 7/13/44 25/55/44 40/87/44
f 9/18/45 16/33/45 15/29/45
f 36/81/46 33/73/46 34/75/46
f 82/173/19 90/192/19 76/160/19
f 97/207/47 54/113/47 63/133/47
f 76/160/48 92/198/48 77/162/48
f 78/164/49 73/153/49 67/139/49
f 98/208/50 104/218/50 97/207/50
f 111/230/51 102/215/51 101/214/51
f 69/145/52 79/166/52 68/142/52
f 92/198/53 75/157/53 77/162/53
f 80/167/54 107/224/54 79/166/54
f 79/166/55 86/182/55 68/142/55
f 85/180/56 70/147/56 84/177/56
f 69/144/57 84/177/57 96/206/57
f 4/7/58 86/182/58 1/1/58
f 81/170/59 88/187/59 87/183/59
f 73/152/60 82/174/60 76/161/60
f 61/128/61 88/188/61 3/5/61
f 89/189/62 88/188/62 87/184/62
f 100/212/63 93/199/63 99/209/63
f 82/173/64 3/6/64 88/186/64
f 102/216/65 62/130/65 57/120/65
f 66/138/66 97/207/66 103/217/66
f 64/134/67 110/228/67 105/220/67
f 103/217/68 63/133/68 55/116/68
f 56/119/69 104/219/69 101/213/69
f 101/214/70 57/122/70 56/118/70
f 104/219/71 111/229/71 101/213/71
f 94/203/72 102/216/72 75/157/72
f 78/165/73 4/7/73 58/123/73
f 107/224/74 86/182/74 79/166/74
f 62/131/75 99/209/75 106/222/75
f 2/2/76 107/224/76 108/225/76
f 72/150/77 109/227/77 64/134/77
f 110/228/78 53/110/78 105/220/78
f 96/206/79 66/138/79 109/227/79
f 109/227/80 103/217/80 110/228/80
f 103/217/81 5/9/81 110/228/81
f 59/124/82 82/174/82 81/171/82
f 58/123/83 81/171/83 78/165/83
f 75/158/84 74/154/84 77/163/84
f 90/194/85 91/195/85 92/197/85
f 66/138/86 85/180/86 83/175/86
f 74/154/87 76/159/87 77/163/87
f 65/136/88 74/156/88 111/229/88
f 83/175/89 65/137/89 98/208/89
f 67/139/90 74/156/90 71/148/90
f 91/195/91 94/204/91 92/197/91
f 49/103/92 69/146/92 53/111/92
f 37/83/93 27/59/93 13/26/93
f 67/141/94 84/179/94 86/182/94
f 31/69/95 99/210/95 91/196/95
f 24/53/19 18/36/19 32/70/19
f 39/86/96 63/132/96 54/112/96
f 34/76/97 32/70/97 18/36/97
f 20/41/98 9/18/98 15/29/98
f 40/87/99 39/86/99 46/97/99
f 44/94/100 17/35/100 52/107/100
f 21/45/101 22/46/101 11/21/101
f 17/34/102 36/80/102 34/76/102
f 48/101/103 49/102/103 22/47/103
f 11/21/104 14/27/104 38/85/104
f 38/85/105 12/23/105 26/57/105
f 26/57/106 10/20/106 11/21/106
f 4/7/107 1/1/107 28/60/107
f 23/50/14 29/62/14 30/65/14
f 24/52/108 23/50/108 15/30/108
f 30/66/16 29/63/16 61/127/16
f 30/66/17 32/71/17 31/68/17
f 35/78/18 36/81/18 42/90/18
f 24/53/109 30/67/109 3/6/109
f 44/95/110 57/120/110 62/130/110
f 8/17/111 45/96/111 39/86/111
f 51/106/112 50/105/112 6/10/112
f 45/96/113 55/115/113 63/132/113
f 56/119/114 43/92/114 46/98/114
f 57/121/115 44/94/115 43/93/115
f 52/108/116 7/14/116 46/98/116
f 44/95/117 42/91/117 36/80/117
f 4/7/13 37/82/13 20/42/13
f 28/60/118 1/1/118 48/101/118
f 62/131/30 106/222/30 41/88/30
f 48/101/119 1/1/119 2/2/119
f 14/27/120 6/11/120 50/104/120
f 53/109/121 5/8/121 51/106/121
f 38/85/122 50/104/122 8/16/122
f 50/105/123 51/106/123 45/96/123
f 5/8/124 55/115/124 45/96/124
f 59/124/125 23/51/125 24/54/125
f 23/51/126 59/124/126 58/123/126
f 16/31/39 52/107/39 17/35/39
f 32/71/127 34/77/127 33/72/127
f 8/17/128 40/87/128 25/55/128
f 27/58/129 12/24/129 8/17/129
f 16/32/130 19/40/130 18/37/130
f 7/14/131 52/108/131 16/33/131
f 7/15/132 13/26/132 25/56/132
f 9/18/133 13/25/133 16/33/133
f 36/81/134 35/78/134 33/73/134
f 82/173/135 88/186/135 90/192/135
f 97/207/136 104/218/136 54/113/136
f 76/160/97 90/192/97 92/198/97
f 78/164/137 81/169/137 73/153/137
f 98/208/138 65/137/138 104/218/138
f 111/230/139 75/158/139 102/215/139
f 69/145/140 80/167/140 79/166/140
f 92/198/141 94/203/141 75/157/141
f 80/167/142 108/225/142 107/224/142
f 96/206/143 72/150/143 69/144/143
f 69/145/144 68/142/144 84/179/144
f 84/177/145 70/147/145 96/206/145
f 4/7/146 95/205/146 86/182/146
f 81/170/59 82/172/59 88/187/59
f 73/152/147 81/171/147 82/174/147
f 61/128/61 87/184/61 88/188/61
f 89/189/62 90/193/62 88/188/62
f 100/212/63 94/202/63 93/199/63
f 82/173/19 60/125/19 3/6/19
f 102/216/148 100/211/148 62/130/148
f 66/138/149 98/208/149 97/207/149
f 64/134/150 109/227/150 110/228/150
f 103/217/151 97/207/151 63/133/151
f 56/119/152 54/114/152 104/219/152
f 101/214/153 102/215/153 57/122/153
f 104/219/154 65/136/154 111/229/154
f 94/203/155 100/211/155 102/216/155
f 78/165/146 95/205/146 4/7/146
f 107/224/156 1/1/156 86/182/156
f 62/131/75 100/212/75 99/209/75
f 2/2/157 1/1/157 107/224/157
f 72/150/158 96/206/158 109/227/158
f 110/228/159 5/9/159 53/110/159
f 96/206/160 70/147/160 66/138/160
f 109/227/161 66/138/161 103/217/161
f 103/217/162 55/116/162 5/9/162
f 59/124/163 60/126/163 82/174/163
f 58/123/164 59/124/164 81/171/164
f 75/158/84 111/230/84 74/154/84
f 90/194/165 89/190/165 91/195/165
f 83/175/166 98/208/166 66/138/166
f 66/138/167 70/147/167 85/180/167
f 74/155/168 73/152/168 76/161/168
f 65/136/169 71/148/169 74/156/169
f 83/175/170 71/149/170 65/137/170
f 67/139/171 73/153/171 74/156/171
f 91/195/172 93/200/172 94/204/172
f 6/12/173 14/28/173 11/22/173
f 11/22/173 22/48/173 49/103/173
f 49/103/173 2/3/173 108/226/173
f 108/226/173 80/168/173 69/146/173
f 69/146/173 72/151/173 64/135/173
f 64/135/174 105/221/174 53/111/174
f 53/111/175 47/100/175 6/12/175
f 6/12/173 11/22/173 49/103/173
f 49/103/173 108/226/173 69/146/173
f 69/146/176 64/135/176 53/111/176
f 53/111/177 6/12/177 49/103/177
f 9/19/178 20/43/178 37/83/178
f 37/83/179 28/61/179 10/20/179
f 10/20/180 26/57/180 27/59/180
f 27/59/181 25/56/181 13/26/181
f 13/26/182 9/19/182 37/83/182
f 37/83/183 10/20/183 27/59/183
f 95/205/184 78/165/184 67/141/184
f 67/140/185 71/149/185 83/175/185
f 83/175/56 85/180/56 84/177/56
f 84/178/186 68/143/186 86/181/186
f 86/182/184 95/205/184 67/141/184
f 67/141/187 83/176/187 84/179/187
f 61/129/188 29/64/188 31/69/188
f 31/69/189 33/74/189 35/79/189
f 41/89/190 106/223/190 99/210/190
f 31/69/191 35/79/191 41/89/191
f 87/185/192 61/129/192 31/69/192
f 91/196/193 89/191/193 87/185/193
f 99/210/194 93/201/194 91/196/194
f 31/69/195 41/89/195 99/210/195
f 91/196/196 87/185/196 31/69/196
l 89 73
l 31 15
