# Blender 3.5.0
# www.blender.org
mtllib M_Font.mtl
o 平面.003
v -0.543068 0.462272 -0.098534
v -0.824283 -0.377804 -0.098534
v -0.543068 -0.377804 -0.098534
v -0.824283 0.546825 -0.098534
v -0.399433 0.626577 -0.098534
v -0.323641 0.626577 -0.098534
v -0.177886 0.470222 -0.098534
v -0.180536 -0.375154 -0.098534
v 0.013019 -0.375154 -0.098534
v -0.564681 0.853705 -0.098534
v -0.180313 0.856885 -0.098534
v 0.013019 0.631628 -0.098534
v 0.569105 0.462272 -0.098534
v 0.850320 -0.377804 -0.098534
v 0.569105 -0.377804 -0.098534
v 0.850320 0.546825 -0.098534
v 0.425471 0.626577 -0.098534
v 0.349678 0.626577 -0.098534
v 0.203924 0.470222 -0.098534
v 0.206574 -0.375154 -0.098534
v 0.590718 0.853705 -0.098534
v 0.206350 0.856885 -0.098534
v 0.850320 0.987304 -0.098534
v 0.590718 0.985078 -0.098534
v -0.543068 0.462272 0.131131
v -0.824283 -0.377804 0.131131
v -0.543068 -0.377804 0.131131
v -0.824283 0.546825 0.131131
v -0.399433 0.626577 0.131131
v -0.323641 0.626577 0.131131
v -0.177886 0.470222 0.131131
v -0.180536 -0.375154 0.131131
v 0.013019 -0.375154 0.131131
v -0.564681 0.853705 0.131131
v -0.180313 0.856885 0.131131
v 0.013019 0.631628 0.131131
v 0.569105 0.462272 0.131131
v 0.850320 -0.377804 0.131131
v 0.569105 -0.377804 0.131131
v 0.850320 0.546825 0.131131
v 0.425471 0.626577 0.131131
v 0.349678 0.626577 0.131131
v 0.203924 0.470222 0.131131
v 0.206574 -0.375154 0.131131
v 0.590718 0.853705 0.131131
v 0.206350 0.856885 0.131131
v 0.850320 0.987304 0.131131
v 0.590718 0.985078 0.131131
vn -0.0000 -0.0000 -1.0000
vn -0.0000 -0.0000 1.0000
vn -1.0000 0.0031 -0.0000
vn 0.7315 -0.6819 -0.0000
vn -0.0000 -1.0000 -0.0000
vn 1.0000 0.0031 -0.0000
vn 0.7529 -0.6582 -0.0000
vn -0.7635 0.6458 -0.0000
vn 1.0000 -0.0000 -0.0000
vn -0.7529 -0.6582 -0.0000
vn -0.0086 1.0000 -0.0000
vn -0.0083 1.0000 -0.0000
vn -1.0000 -0.0000 -0.0000
vn 0.7588 0.6513 -0.0000
vn 0.0083 1.0000 -0.0000
vn -0.7588 0.6513 -0.0000
vn -0.7315 -0.6819 -0.0000
vt 0.170999 0.397279
vt 0.186189 0.841836
vt 0.651744 0.653025
vt 0.392995 0.471592
vt 0.108596 0.974151
vt 0.392995 0.397279
vt 0.186189 0.558016
vt 0.651744 0.558016
vt 0.148656 0.471592
vt 0.108596 0.661764
vt 0.799328 0.723317
vt 0.127581 0.359322
vt 0.186189 0.897309
vt 0.418966 0.558016
vt 0.127581 0.339294
vt 0.773721 0.723317
vt 0.168899 0.300777
vt 0.418966 0.610802
vt 0.392295 0.301477
vt 0.418966 0.688801
vt 0.418966 0.896414
vt 0.392295 0.250329
vt 0.418966 0.623409
vt 0.108596 0.558016
vt 0.067561 0.402990
vt 0.496559 0.558016
vt 0.496559 0.687877
vt 0.066720 0.301418
vt 0.572713 0.687877
vt 0.126246 0.250329
vt 0.496559 0.687877
vt 0.650306 0.687871
vt 0.170999 0.103380
vt 0.263781 0.613488
vt 0.878113 0.490733
vt 0.392995 0.029067
vt 0.651744 0.653025
vt 0.392995 0.103380
vt 0.651744 0.748033
vt 0.263781 0.897309
vt 0.148656 0.029067
vt 0.878113 0.178346
vt 0.263781 0.558016
vt 0.127581 0.141336
vt 0.418966 0.766394
vt 0.444573 0.766394
vt 0.127581 0.161365
vt 0.341374 0.896414
vt 0.168898 0.199881
vt 0.341374 0.843628
vt 0.341374 0.558016
vt 0.392295 0.199181
vt 0.418966 0.558016
vt 0.651744 0.558016
vt 0.067561 0.097668
vt 0.773721 0.645724
vt 0.574151 0.687871
vt 0.066720 0.199240
vt 0.651744 0.687871
vt 0.729336 0.645724
vt 0.032256 0.029067
vt 0.878113 0.029529
vt 0.729336 0.645724
vt 0.032844 0.097668
vt 0.729336 0.558016
vt 0.562742 0.101830
vt 0.108596 0.841836
vt 0.784738 0.027517
vt 0.031004 0.974151
vt 0.729336 0.653025
vt 0.784738 0.101830
vt 0.108596 0.558016
vt 0.729336 0.558016
vt 0.540399 0.027517
vt 0.031004 0.661764
vt 0.519324 0.139786
vt 0.108596 0.897309
vt 0.799328 0.645724
vt 0.519324 0.159815
vt 0.773721 0.645724
vt 0.341374 0.558016
vt 0.560641 0.198331
vt 0.341374 0.610802
vt 0.784038 0.197631
vt 0.341374 0.896414
vt 0.496559 0.688801
vt 0.784038 0.248779
vt 0.496559 0.623409
vt 0.459304 0.096118
vt 0.031004 0.558016
vt 0.574151 0.558016
vt 0.458463 0.197690
vt 0.574151 0.687877
vt 0.572713 0.765470
vt 0.496559 0.765470
vt 0.517989 0.248779
vt 0.650306 0.765464
vt 0.562742 0.395729
vt 0.186189 0.613488
vt 0.784738 0.470041
vt 0.955706 0.490733
vt 0.729336 0.653025
vt 0.784738 0.395729
vt 0.186189 0.897309
vt 0.729336 0.748033
vt 0.540399 0.470041
vt 0.955706 0.178346
vt 0.519324 0.357772
vt 0.186189 0.558016
vt 0.418966 0.688801
vt 0.519324 0.337744
vt 0.263781 0.896414
vt 0.444573 0.688801
vt 0.560641 0.299227
vt 0.263781 0.843628
vt 0.784038 0.299927
vt 0.263781 0.558016
vt 0.496559 0.558016
vt 0.459304 0.401440
vt 0.574151 0.558016
vt 0.773721 0.723317
vt 0.458463 0.299868
vt 0.574151 0.687871
vt 0.574151 0.765464
vt 0.423999 0.470041
vt 0.806929 0.645724
vt 0.955706 0.029529
vt 0.424587 0.401440
vt 0.806929 0.558016
vt 0.729336 0.723317
s 0
usemtl マテリアル.003
f 12/30/1 6/15/1 11/28/1
f 5/12/1 11/28/1 6/15/1
f 1/1/1 10/25/1 5/12/1
f 2/4/1 1/1/1 3/6/1
f 7/17/1 9/22/1 8/19/1
f 12/30/1 18/47/1 19/49/1
f 22/58/1 17/44/1 18/47/1
f 21/55/1 13/33/1 17/44/1
f 13/33/1 14/36/1 15/38/1
f 19/49/1 9/22/1 12/30/1
f 21/55/1 23/61/1 16/41/1
f 36/96/2 30/79/2 31/82/2
f 35/92/2 29/76/2 30/79/2
f 34/89/2 25/66/2 29/76/2
f 25/66/2 26/68/2 27/71/2
f 31/82/2 33/87/2 36/96/2
f 36/96/2 42/111/2 46/122/2
f 41/108/2 46/122/2 42/111/2
f 37/98/2 45/119/2 41/108/2
f 38/100/2 37/98/2 39/103/2
f 43/114/2 33/87/2 44/116/2
f 45/119/2 47/125/2 48/128/2
f 8/21/3 31/83/3 7/18/3
f 18/48/4 43/115/4 19/50/4
f 9/23/5 32/86/5 8/20/5
f 19/50/6 44/117/6 20/51/6
f 5/13/7 25/67/7 1/2/7
f 4/10/8 34/90/8 10/24/8
f 20/53/5 33/88/5 9/23/5
f 1/2/9 27/72/9 3/7/9
f 13/34/10 41/109/10 17/43/10
f 24/65/11 47/126/11 23/60/11
f 10/26/12 35/93/12 11/27/12
f 2/5/13 28/75/13 4/10/13
f 15/40/13 37/99/13 13/34/13
f 23/62/9 40/107/9 16/42/9
f 12/31/14 35/94/14 36/95/14
f 22/59/15 45/120/15 21/54/15
f 3/8/5 26/70/5 2/3/5
f 16/42/9 38/101/9 14/35/9
f 21/56/13 48/130/13 24/63/13
f 12/32/16 46/124/16 22/57/16
f 6/16/5 29/78/5 5/11/5
f 14/37/5 39/105/5 15/39/5
f 7/18/17 30/81/17 6/14/17
f 17/45/5 42/113/5 18/46/5
f 12/30/1 7/17/1 6/15/1
f 5/12/1 10/25/1 11/28/1
f 1/1/1 4/9/1 10/25/1
f 2/4/1 4/9/1 1/1/1
f 7/17/1 12/30/1 9/22/1
f 12/30/1 22/58/1 18/47/1
f 22/58/1 21/55/1 17/44/1
f 21/55/1 16/41/1 13/33/1
f 13/33/1 16/41/1 14/36/1
f 19/49/1 20/52/1 9/22/1
f 21/55/1 24/64/1 23/61/1
f 36/96/2 35/92/2 30/79/2
f 35/92/2 34/89/2 29/76/2
f 34/89/2 28/74/2 25/66/2
f 25/66/2 28/74/2 26/68/2
f 31/82/2 32/84/2 33/87/2
f 36/96/2 43/114/2 42/111/2
f 41/108/2 45/119/2 46/122/2
f 37/98/2 40/106/2 45/119/2
f 38/100/2 40/106/2 37/98/2
f 43/114/2 36/96/2 33/87/2
f 45/119/2 40/106/2 47/125/2
f 8/21/3 32/85/3 31/83/3
f 18/48/4 42/112/4 43/115/4
f 9/23/5 33/88/5 32/86/5
f 19/50/6 43/115/6 44/117/6
f 5/13/7 29/77/7 25/67/7
f 4/10/8 28/75/8 34/90/8
f 20/53/5 44/118/5 33/88/5
f 1/2/9 25/67/9 27/72/9
f 13/34/10 37/99/10 41/109/10
f 24/65/11 48/129/11 47/126/11
f 10/26/12 34/91/12 35/93/12
f 2/5/13 26/69/13 28/75/13
f 15/40/13 39/104/13 37/99/13
f 23/62/9 47/127/9 40/107/9
f 12/31/14 11/29/14 35/94/14
f 22/59/15 46/123/15 45/120/15
f 3/8/5 27/73/5 26/70/5
f 16/42/9 40/107/9 38/101/9
f 21/56/13 45/121/13 48/130/13
f 12/32/16 36/97/16 46/124/16
f 6/16/5 30/80/5 29/78/5
f 14/37/5 38/102/5 39/105/5
f 7/18/17 31/83/17 30/81/17
f 17/45/5 41/110/5 42/113/5
