# Blender 3.5.1
# www.blender.org
mtllib kenn.mtl
o 立方体.001
v 0.135265 0.609456 0.000000
v -0.128012 0.609456 0.000000
v -0.058277 0.109456 -0.481133
v -0.003492 3.649952 -0.677904
v -0.058277 1.527967 -0.351887
v 0.058277 0.609456 -0.313268
v 0.058277 0.109456 -0.481133
v 0.022251 3.649952 -0.677904
v -0.058277 0.609456 -0.313268
v -0.058277 1.109456 -0.312796
v 0.058277 1.109456 -0.312796
v -0.058277 2.234924 -0.240567
v -0.128012 0.109456 0.000000
v -0.128012 2.109456 0.000000
v 0.135265 0.109456 0.000000
v 0.135265 2.109456 0.000000
v 0.135265 1.109456 0.000000
v -0.128012 1.109456 0.000000
v -0.043220 3.992609 -0.204804
v 0.058277 0.109456 -0.240567
v -0.058277 1.109456 -0.240567
v -0.058277 0.109456 -0.240567
v 0.066030 3.992609 -0.204804
v 0.058277 1.109456 -0.240567
v -0.058277 1.672190 -0.240567
v 0.058277 2.234924 -0.240567
v 0.058277 1.946479 -0.385510
v 0.058277 1.672190 -0.240567
v -0.058277 1.946479 -0.385510
v 0.058277 1.527967 -0.351887
v 0.058277 2.226989 -0.131386
v -0.058277 2.204434 -0.127048
v 0.058277 0.609456 -0.240567
v -0.058277 0.609456 -0.240567
v -0.058033 0.258370 -1.465700
v 0.058522 0.258370 -1.465700
v -0.128012 0.224722 0.000000
v 0.135265 0.224722 0.000000
v 0.058277 0.224722 -0.240567
v -0.058277 0.224722 -0.240567
v 0.058277 0.292537 -0.393317
v -0.058277 0.301942 -0.402136
v 0.000000 0.651548 -0.391919
v 0.000000 0.069249 -0.559784
v 0.009379 3.692045 -0.756555
v 0.000000 1.988572 -0.464161
v 0.000000 1.151549 -0.391447
v 0.000000 1.570060 -0.430537
v 0.003627 2.151548 0.004402
v 0.003627 0.069249 -0.078651
v 0.000000 0.069249 -0.319217
v 0.009379 4.139927 -0.127303
v 0.000000 2.257805 -0.051716
v 0.000000 0.257584 -1.480749
v 0.000000 0.339332 -0.476378
v 0.000000 0.320669 -0.630719
v -0.058277 0.210962 -0.599270
v -0.058277 0.157124 -0.576849
v 0.058522 0.304318 -0.621830
v -0.058033 0.305237 -0.629106
v -0.058033 0.301229 -1.047403
v 0.058522 0.300770 -1.043765
v 0.000000 0.308552 -1.076992
v 0.058522 0.383805 -1.252963
v -0.058033 0.383899 -1.257406
v 0.000000 0.390647 -1.249296
v -0.058087 0.135158 -1.268566
v 0.000000 0.113396 -1.268373
v 0.058474 0.128462 -1.272966
v -0.058155 0.234666 -1.032485
v 0.058449 0.248320 -1.099758
v -0.058277 0.109456 0.481133
v -0.003492 3.649952 0.677904
v -0.058277 1.527967 0.351887
v 0.058277 0.609456 0.313268
v 0.058277 0.109456 0.481133
v 0.022251 3.649952 0.677904
v -0.058277 0.609456 0.313268
v -0.058277 1.109456 0.312796
v 0.058277 1.109456 0.312796
v -0.058277 2.234924 0.240567
v -0.043220 3.992609 0.204804
v 0.058277 0.109456 0.240567
v -0.058277 1.109456 0.240567
v -0.058277 0.109456 0.240567
v 0.066030 3.992609 0.204804
v 0.058277 1.109456 0.240567
v -0.058277 1.672190 0.240567
v 0.058277 2.234924 0.240567
v 0.058277 1.946479 0.385510
v 0.058277 1.672190 0.240567
v -0.058277 1.946479 0.385510
v 0.058277 1.527967 0.351887
v 0.058277 2.226989 0.131386
v -0.058277 2.204434 0.127048
v 0.058277 0.609456 0.240567
v -0.058277 0.609456 0.240567
v -0.058033 0.258370 1.465700
v 0.058522 0.258370 1.465700
v 0.058277 0.224722 0.240567
v -0.058277 0.224722 0.240567
v 0.058277 0.292537 0.393317
v -0.058277 0.301942 0.402136
v 0.000000 0.651548 0.391919
v 0.000000 0.069249 0.559784
v 0.009379 3.692045 0.756555
v 0.000000 1.988572 0.464161
v 0.000000 1.151549 0.391447
v 0.000000 1.570060 0.430537
v 0.003627 2.151548 -0.004402
v 0.003627 0.069249 0.078651
v 0.000000 0.069249 0.319217
v 0.009379 4.139927 0.127303
v 0.000000 2.257805 0.051716
v 0.000000 0.257584 1.480749
v 0.000000 0.339332 0.476378
v 0.000000 0.320669 0.630719
v -0.058277 0.210962 0.599270
v -0.058277 0.157124 0.576849
v 0.058522 0.304318 0.621830
v -0.058033 0.305237 0.629106
v -0.058033 0.301229 1.047403
v 0.058522 0.300770 1.043765
v 0.000000 0.308552 1.076992
v 0.058522 0.383805 1.252963
v -0.058033 0.383899 1.257406
v 0.000000 0.390647 1.249296
v -0.058087 0.135158 1.268566
v 0.000000 0.113396 1.268373
v 0.058474 0.128462 1.272966
v -0.058155 0.234666 1.032485
v 0.058449 0.248320 1.099758
v -0.038003 -0.856657 0.040183
v -0.038003 0.143343 0.040183
v -0.038003 -0.856658 -0.040183
v -0.038003 0.143343 -0.040183
v 0.038003 -0.856657 0.040183
v 0.038003 0.143343 0.040183
v 0.038003 -0.856658 -0.040183
v 0.038003 0.143343 -0.040183
v -0.046331 -0.966225 -0.000000
v -0.046331 -0.356657 0.048988
v -0.046331 0.252910 0.000000
v -0.046331 -0.356657 -0.048988
v 0.000000 -0.966225 -0.048988
v -0.000000 0.252910 -0.048988
v 0.046331 -0.356657 -0.048988
v 0.046331 -0.966225 0.000000
v 0.046331 0.252910 0.000000
v 0.046331 -0.356657 0.048988
v -0.000000 -0.966225 0.048988
v -0.000000 0.252911 0.048988
v -0.063808 -0.356657 0.000000
v 0.000000 -0.356657 -0.067467
v 0.063808 -0.356657 0.000000
v -0.000000 -0.356657 0.067467
v 0.000000 -1.196164 0.000000
v -0.000000 0.482849 0.000000
vn -0.9968 0.0143 -0.0787
vn 0.8946 -0.0688 -0.4415
vn 1.0000 -0.0005 -0.0000
vn -1.0000 0.0004 -0.0002
vn 0.4470 -0.8938 -0.0376
vn 0.9524 -0.0000 -0.3048
vn -0.9605 -0.0000 -0.2784
vn -1.0000 -0.0000 -0.0000
vn 0.8036 0.0006 -0.5951
vn -0.8268 0.0290 0.5618
vn 0.4400 -0.8950 -0.0737
vn 0.9749 0.0103 -0.2223
vn 0.7872 -0.0573 -0.6140
vn 0.9973 0.0027 -0.0734
vn 0.5679 -0.8231 -0.0000
vn -0.9136 0.3142 -0.2583
vn 1.0000 -0.0000 -0.0000
vn -0.9800 0.0131 -0.1985
vn 0.2080 0.9780 -0.0176
vn 0.7897 -0.0491 -0.6115
vn -0.5478 0.6544 0.5212
vn 1.0000 -0.0002 0.0002
vn -0.8227 0.1531 -0.5475
vn 0.8379 0.1381 -0.5280
vn 0.5017 0.6546 0.5656
vn -0.7897 -0.0491 -0.6115
vn -0.1971 0.9802 -0.0183
vn 0.9037 0.3301 -0.2726
vn -0.5679 -0.8231 -0.0000
vn -0.7872 -0.0573 -0.6140
vn -0.4304 -0.9007 -0.0591
vn 0.8175 0.0197 0.5755
vn -0.8036 0.0006 -0.5951
vn -0.6947 -0.7185 -0.0337
vn -0.8975 -0.0581 -0.4371
vn -0.4329 0.9007 -0.0366
vn 0.4849 0.8744 -0.0154
vn -1.0000 -0.0001 -0.0003
vn -1.0000 0.0023 -0.0001
vn -0.0744 0.8596 -0.5055
vn 0.0932 0.8605 -0.5008
vn 0.0143 0.9176 0.3972
vn -0.0381 0.9177 0.3955
vn -0.2265 -0.8155 -0.5326
vn 0.1602 -0.8175 -0.5531
vn -1.0000 -0.0000 -0.0003
vn -1.0000 0.0007 -0.0001
vn 1.0000 -0.0008 0.0001
vn 1.0000 -0.0001 0.0002
vn -0.9968 0.0143 0.0787
vn 0.8946 -0.0688 0.4415
vn -1.0000 0.0004 0.0002
vn 0.4470 -0.8938 0.0376
vn 0.9524 -0.0000 0.3048
vn -0.9605 -0.0000 0.2784
vn 0.8036 0.0006 0.5951
vn -0.8268 0.0290 -0.5618
vn 0.4400 -0.8950 0.0737
vn 0.9749 0.0103 0.2223
vn 0.7872 -0.0573 0.6140
vn 0.9973 0.0027 0.0734
vn -0.9136 0.3142 0.2583
vn -0.9800 0.0131 0.1985
vn 0.2080 0.9780 0.0176
vn 0.7897 -0.0491 0.6115
vn -0.5478 0.6544 -0.5212
vn 1.0000 -0.0002 -0.0002
vn -0.8227 0.1531 0.5475
vn 0.8379 0.1381 0.5280
vn 0.5017 0.6546 -0.5656
vn -0.7897 -0.0491 0.6115
vn -0.1971 0.9802 0.0183
vn 0.9037 0.3301 0.2726
vn -0.7872 -0.0573 0.6140
vn -0.4304 -0.9007 0.0591
vn 0.8175 0.0197 -0.5755
vn -0.8036 0.0006 0.5951
vn -0.6947 -0.7185 0.0337
vn -0.8975 -0.0581 0.4371
vn -0.4329 0.9007 0.0366
vn 0.4849 0.8744 0.0154
vn -1.0000 -0.0001 0.0003
vn -1.0000 0.0023 0.0001
vn -0.0744 0.8596 0.5055
vn 0.0932 0.8605 0.5008
vn 0.0143 0.9176 -0.3972
vn -0.0381 0.9177 -0.3955
vn -0.2265 -0.8155 0.5326
vn 0.1602 -0.8175 0.5531
vn -1.0000 -0.0000 0.0003
vn -1.0000 0.0007 0.0001
vn 1.0000 -0.0008 -0.0001
vn 1.0000 -0.0001 -0.0002
vn -0.9518 -0.0246 0.3056
vn -0.9518 0.0246 0.3056
vn -0.9518 0.0246 -0.3056
vn -0.9518 -0.0246 -0.3056
vn -0.3378 -0.0257 -0.9409
vn -0.3378 0.0257 -0.9409
vn 0.3378 0.0257 -0.9409
vn 0.3378 -0.0257 -0.9409
vn 0.9518 -0.0246 -0.3056
vn 0.9518 0.0246 -0.3056
vn 0.9518 0.0246 0.3056
vn 0.9518 -0.0246 0.3056
vn 0.3378 -0.0257 0.9409
vn 0.3378 0.0257 0.9409
vn -0.3378 0.0257 0.9409
vn -0.3378 -0.0257 0.9409
vn -0.7171 -0.1605 -0.6782
vn 0.7171 -0.1605 -0.6782
vn 0.7171 -0.1605 0.6782
vn -0.7171 -0.1605 0.6782
vn 0.7171 0.1605 -0.6782
vn -0.7171 0.1605 -0.6782
vn -0.7171 0.1605 0.6782
vn 0.7171 0.1605 0.6782
vt 0.437500 0.625000
vt 0.437500 0.125000
vt 0.125000 0.500000
vt 0.375000 0.250000
vt 0.875000 0.500000
vt 0.625000 0.250000
vt 0.531250 0.250000
vt 0.437500 0.500000
vt 0.375000 0.500000
vt 0.625000 0.500000
vt 0.437500 0.250000
vt 0.500000 0.250000
vt 0.500000 0.500000
vt 0.562500 0.187500
vt 0.375000 0.125000
vt 0.125000 0.625000
vt 0.625000 0.125000
vt 0.875000 0.625000
vt 0.375000 0.625000
vt 0.625000 0.625000
vt 0.500000 0.625000
vt 0.500000 0.125000
vt 0.875000 0.562500
vt 0.625000 0.187500
vt 0.375000 0.562500
vt 0.500000 0.187500
vt 0.375000 0.187500
vt 0.125000 0.562500
vt 0.625000 0.562500
vt 0.500000 0.562500
vt 0.531250 0.187500
vt 0.562500 0.562500
vt 0.562500 0.500000
vt 0.531250 0.562500
vt 0.562500 0.250000
vt 0.531250 0.500000
vt 0.625000 0.590866
vt 0.625000 0.158008
vt 0.875000 0.591992
vt 0.437500 0.562500
vt 0.437500 0.187500
vt 0.406250 0.250000
vt 0.406250 0.500000
vt 0.406250 0.125000
vt 0.406250 0.625000
vt 0.406250 0.562500
vt 0.406250 0.187500
vt 0.422022 0.500000
vt 0.421269 0.250000
vt 0.437500 0.375000
vt 0.250000 0.500000
vt 0.375000 0.375000
vt 0.750000 0.500000
vt 0.625000 0.375000
vt 0.562500 0.375000
vt 0.500000 0.375000
vt 0.531250 0.375000
vt 0.750000 0.625000
vt 0.250000 0.625000
vt 0.250000 0.562500
vt 0.750000 0.562500
vt 0.750000 0.591429
vt 0.406250 0.375000
vt 0.421645 0.375000
vt 0.413192 0.375000
vt 0.406250 0.238655
vt 0.390130 0.250000
vt 0.410563 0.500000
vt 0.410093 0.250000
vt 0.408172 0.250000
vt 0.408407 0.500000
vt 0.409721 0.375000
vt 0.407337 0.500000
vt 0.407207 0.250000
vt 0.408381 0.375000
vt 0.402675 0.250000
vt 0.399044 0.375000
vt 0.400133 0.500000
vt 0.406250 0.244327
vt 0.406250 0.518668
vt 0.125000 0.500000
vt 0.375000 0.250000
vt 0.875000 0.500000
vt 0.625000 0.250000
vt 0.531250 0.250000
vt 0.437500 0.500000
vt 0.375000 0.500000
vt 0.625000 0.500000
vt 0.437500 0.250000
vt 0.500000 0.250000
vt 0.500000 0.500000
vt 0.562500 0.187500
vt 0.875000 0.562500
vt 0.625000 0.187500
vt 0.375000 0.562500
vt 0.500000 0.187500
vt 0.375000 0.187500
vt 0.125000 0.562500
vt 0.625000 0.562500
vt 0.500000 0.562500
vt 0.531250 0.187500
vt 0.562500 0.562500
vt 0.562500 0.500000
vt 0.531250 0.562500
vt 0.562500 0.250000
vt 0.531250 0.500000
vt 0.625000 0.590866
vt 0.625000 0.158008
vt 0.875000 0.591992
vt 0.437500 0.562500
vt 0.437500 0.187500
vt 0.406250 0.250000
vt 0.406250 0.500000
vt 0.406250 0.562500
vt 0.406250 0.187500
vt 0.422022 0.500000
vt 0.421269 0.250000
vt 0.437500 0.375000
vt 0.250000 0.500000
vt 0.375000 0.375000
vt 0.750000 0.500000
vt 0.625000 0.375000
vt 0.562500 0.375000
vt 0.500000 0.375000
vt 0.531250 0.375000
vt 0.750000 0.625000
vt 0.250000 0.625000
vt 0.250000 0.562500
vt 0.750000 0.562500
vt 0.750000 0.591429
vt 0.406250 0.375000
vt 0.421645 0.375000
vt 0.413192 0.375000
vt 0.406250 0.238655
vt 0.390130 0.250000
vt 0.410563 0.500000
vt 0.410093 0.250000
vt 0.408172 0.250000
vt 0.408407 0.500000
vt 0.409721 0.375000
vt 0.407337 0.500000
vt 0.407207 0.250000
vt 0.408381 0.375000
vt 0.402675 0.250000
vt 0.399044 0.375000
vt 0.400133 0.500000
vt 0.406250 0.244327
vt 0.406250 0.518668
vt 0.375000 0.000000
vt 0.375000 1.000000
vt 0.125000 0.750000
vt 0.625000 0.000000
vt 0.625000 1.000000
vt 0.875000 0.750000
vt 0.375000 0.250000
vt 0.125000 0.500000
vt 0.625000 0.250000
vt 0.875000 0.500000
vt 0.375000 0.750000
vt 0.625000 0.750000
vt 0.375000 0.500000
vt 0.625000 0.500000
vt 0.375000 0.125000
vt 0.125000 0.625000
vt 0.500000 0.000000
vt 0.500000 1.000000
vt 0.625000 0.125000
vt 0.875000 0.625000
vt 0.500000 0.250000
vt 0.375000 0.375000
vt 0.250000 0.500000
vt 0.625000 0.375000
vt 0.750000 0.500000
vt 0.500000 0.500000
vt 0.375000 0.625000
vt 0.625000 0.625000
vt 0.500000 0.750000
vt 0.375000 0.875000
vt 0.250000 0.750000
vt 0.625000 0.875000
vt 0.750000 0.750000
vt 0.500000 0.125000
vt 0.500000 0.375000
vt 0.500000 0.625000
vt 0.500000 0.875000
vt 0.250000 0.625000
vt 0.750000 0.625000
s 0
f 12/14/1 19/24/1 4/6/1 29/35/1
f 46/55/2 45/54/2 8/10/2 27/33/2
f 36/43/3 64/73/3 62/71/3 71/80/3
f 40/47/4 34/41/4 9/11/4 42/49/4 60/69/4 57/66/4
f 44/52/5 68/77/5 69/78/5 7/9/5
f 39/46/6 33/40/6 1/1/6 38/45/6
f 13/15/7 37/44/7 40/47/7 22/27/7
f 25/31/8 12/14/8 29/35/8 5/7/8
f 43/50/9 47/56/9 11/13/9 6/8/9
f 34/41/8 21/26/8 10/12/8 9/11/8
f 21/26/8 25/31/8 5/7/8 10/12/8
f 33/40/6 24/30/6 17/21/6 1/1/6
f 52/61/10 19/23/10 32/39/10 53/62/10
f 51/60/11 20/25/11 15/19/11 50/59/11
f 24/30/12 28/34/12 26/32/12 23/29/12 31/37/12 16/20/12 17/21/12
f 47/56/13 48/57/13 30/36/13 11/13/13
f 27/33/14 8/10/14 23/29/14 26/32/14
f 44/51/15 7/9/15 20/25/15 51/60/15
f 45/53/16 4/5/16 19/23/16 52/61/16
f 6/8/17 11/13/17 24/30/17 33/40/17
f 2/2/7 18/22/7 21/26/7 34/41/7
f 18/22/18 14/17/18 32/38/18 19/24/18 12/14/18 25/31/18 21/26/18
f 63/72/19 56/65/19 59/68/19 62/71/19
f 20/25/6 39/46/6 38/45/6 15/19/6
f 30/36/17 27/33/17 26/32/17 28/34/17
f 11/13/17 30/36/17 28/34/17 24/30/17
f 37/44/7 2/2/7 34/41/7 40/47/7
f 48/57/20 46/55/20 27/33/20 30/36/20
f 53/62/21 32/39/21 14/18/21 49/58/21
f 22/27/8 40/47/8 57/66/8 58/67/8 3/4/8
f 7/9/22 69/78/22 71/80/22 39/46/22 20/25/22
f 55/64/23 42/49/23 9/11/23 43/50/23
f 41/48/24 55/64/24 43/50/24 6/8/24
f 31/37/25 53/62/25 49/58/25 16/20/25
f 5/7/26 29/35/26 46/55/26 48/57/26
f 61/70/27 60/69/27 56/65/27 63/72/27
f 8/10/28 45/53/28 52/61/28 23/29/28
f 3/3/29 44/51/29 51/60/29 22/28/29
f 10/12/30 5/7/30 48/57/30 47/56/30
f 22/28/31 51/60/31 50/59/31 13/16/31
f 23/29/32 52/61/32 53/62/32 31/37/32
f 9/11/33 10/12/33 47/56/33 43/50/33
f 3/4/34 58/67/34 67/76/34 68/77/34 44/52/34
f 29/35/35 4/6/35 45/54/35 46/55/35
f 56/65/36 60/69/36 42/49/36 55/64/36
f 59/68/37 56/65/37 55/64/37 41/48/37
f 58/67/38 57/66/38 70/79/38 67/76/38
f 57/66/39 60/69/39 61/70/39 70/79/39
f 35/42/40 65/74/40 66/75/40 54/63/40
f 54/63/41 66/75/41 64/73/41 36/43/41
f 64/73/42 66/75/42 63/72/42 62/71/42
f 66/75/43 65/74/43 61/70/43 63/72/43
f 68/77/44 67/76/44 35/42/44 54/63/44
f 69/78/45 68/77/45 54/63/45 36/43/45
f 67/76/46 70/79/46 35/42/46
f 70/79/47 61/70/47 65/74/47 35/42/47
f 71/80/48 62/71/48 59/68/48 41/48/48 6/8/48 33/40/48 39/46/48
f 71/80/49 69/78/49 36/43/49
f 81/92/50 92/105/50 73/84/50 82/94/50
f 107/123/51 90/103/51 77/88/51 106/122/51
f 99/113/3 132/148/3 123/139/3 125/141/3
f 101/115/52 118/134/52 121/137/52 103/117/52 78/89/52 97/111/52
f 105/120/53 76/87/53 130/146/53 129/145/53
f 100/114/54 38/45/54 1/1/54 96/110/54
f 13/15/55 85/97/55 101/115/55 37/44/55
f 88/101/8 74/85/8 92/105/8 81/92/8
f 104/118/56 75/86/56 80/91/56 108/124/56
f 97/111/8 78/89/8 79/90/8 84/96/8
f 84/96/8 79/90/8 74/85/8 88/101/8
f 96/110/54 1/1/54 17/21/54 87/100/54
f 113/129/57 114/130/57 95/109/57 82/93/57
f 112/128/58 111/127/58 15/19/58 83/95/58
f 87/100/59 17/21/59 16/20/59 94/107/59 86/99/59 89/102/59 91/104/59
f 108/124/60 80/91/60 93/106/60 109/125/60
f 90/103/61 89/102/61 86/99/61 77/88/61
f 105/119/15 112/128/15 83/95/15 76/87/15
f 106/121/62 113/129/62 82/93/62 73/83/62
f 75/86/17 96/110/17 87/100/17 80/91/17
f 2/2/55 97/111/55 84/96/55 18/22/55
f 18/22/63 84/96/63 88/101/63 81/92/63 82/94/63 95/108/63 14/17/63
f 124/140/64 123/139/64 120/136/64 117/133/64
f 83/95/54 15/19/54 38/45/54 100/114/54
f 93/106/17 91/104/17 89/102/17 90/103/17
f 80/91/17 87/100/17 91/104/17 93/106/17
f 37/44/55 101/115/55 97/111/55 2/2/55
f 109/125/65 93/106/65 90/103/65 107/123/65
f 114/130/66 110/126/66 14/18/66 95/109/66
f 85/97/8 72/82/8 119/135/8 118/134/8 101/115/8
f 76/87/67 83/95/67 100/114/67 132/148/67 130/146/67
f 116/132/68 104/118/68 78/89/68 103/117/68
f 102/116/69 75/86/69 104/118/69 116/132/69
f 94/107/70 16/20/70 110/126/70 114/130/70
f 74/85/71 109/125/71 107/123/71 92/105/71
f 122/138/72 124/140/72 117/133/72 121/137/72
f 77/88/73 86/99/73 113/129/73 106/121/73
f 72/81/29 85/98/29 112/128/29 105/119/29
f 79/90/74 108/124/74 109/125/74 74/85/74
f 85/98/75 13/16/75 111/127/75 112/128/75
f 86/99/76 94/107/76 114/130/76 113/129/76
f 78/89/77 104/118/77 108/124/77 79/90/77
f 72/82/78 105/120/78 129/145/78 128/144/78 119/135/78
f 92/105/79 107/123/79 106/122/79 73/84/79
f 117/133/80 116/132/80 103/117/80 121/137/80
f 120/136/81 102/116/81 116/132/81 117/133/81
f 119/135/82 128/144/82 131/147/82 118/134/82
f 118/134/83 131/147/83 122/138/83 121/137/83
f 98/112/84 115/131/84 127/143/84 126/142/84
f 115/131/85 99/113/85 125/141/85 127/143/85
f 125/141/86 123/139/86 124/140/86 127/143/86
f 127/143/87 124/140/87 122/138/87 126/142/87
f 129/145/88 115/131/88 98/112/88 128/144/88
f 130/146/89 99/113/89 115/131/89 129/145/89
f 128/144/90 98/112/90 131/147/90
f 131/147/91 98/112/91 126/142/91 122/138/91
f 132/148/92 100/114/92 96/110/92 75/86/92 102/116/92 120/136/92 123/139/92
f 132/148/93 99/113/93 130/146/93
f 133/149/94 142/165/94 153/182/94 141/163/94
f 142/165/95 134/152/95 143/167/95 153/182/95
f 153/182/96 143/167/96 136/157/96 144/169/96
f 141/163/97 153/182/97 144/169/97 135/155/97
f 135/155/98 144/169/98 154/183/98 145/170/98
f 144/169/99 136/157/99 146/172/99 154/183/99
f 154/183/100 146/172/100 140/162/100 147/174/100
f 145/170/101 154/183/101 147/174/101 139/161/101
f 139/161/102 147/174/102 155/184/102 148/175/102
f 147/174/103 140/162/103 149/176/103 155/184/103
f 155/184/104 149/176/104 138/160/104 150/177/104
f 148/175/105 155/184/105 150/177/105 137/159/105
f 137/159/106 150/177/106 156/185/106 151/178/106
f 150/177/107 138/160/107 152/180/107 156/185/107
f 156/185/108 152/180/108 134/153/108 142/166/108
f 151/178/109 156/185/109 142/166/109 133/150/109
f 135/156/110 145/171/110 157/186/110 141/164/110
f 145/171/111 139/161/111 148/175/111 157/186/111
f 157/186/112 148/175/112 137/159/112 151/179/112
f 141/164/113 157/186/113 151/179/113 133/151/113
f 140/162/114 146/173/114 158/187/114 149/176/114
f 146/173/115 136/158/115 143/168/115 158/187/115
f 158/187/116 143/168/116 134/154/116 152/181/116
f 149/176/117 158/187/117 152/181/117 138/160/117
